<svg width="16" height="16" viewBox="0 0 16 16" fill="none" xmlns="http://www.w3.org/2000/svg">
<path d="M12.9231 0C12.6783 0 12.4435 0.0972525 12.2704 0.270363C12.0973 0.443474 12 0.678262 12 0.923077V2.15385H10.7692C10.5244 2.15385 10.2896 2.2511 10.1165 2.42421C9.94341 2.59732 9.84615 2.83211 9.84615 3.07692C9.84615 3.32174 9.94341 3.55653 10.1165 3.72964C10.2896 3.90275 10.5244 4 10.7692 4H12V5.23077C12 5.47558 12.0973 5.71037 12.2704 5.88348C12.4435 6.05659 12.6783 6.15385 12.9231 6.15385C13.1679 6.15385 13.4027 6.05659 13.5758 5.88348C13.7489 5.71037 13.8462 5.47558 13.8462 5.23077V4H15.0769C15.3217 4 15.5565 3.90275 15.7296 3.72964C15.9027 3.55653 16 3.32174 16 3.07692C16 2.83211 15.9027 2.59732 15.7296 2.42421C15.5565 2.2511 15.3217 2.15385 15.0769 2.15385H13.8462V0.923077C13.8462 0.678262 13.7489 0.443474 13.5758 0.270363C13.4027 0.0972525 13.1679 0 12.9231 0ZM2.46154 1.23077C1.8087 1.23077 1.1826 1.49011 0.720968 1.95174C0.25934 2.41337 0 3.03947 0 3.69231V13.5385C0 14.1913 0.25934 14.8174 0.720968 15.279C1.1826 15.7407 1.8087 16 2.46154 16H12.3077C12.9605 16 13.5866 15.7407 14.0483 15.279C14.5099 14.8174 14.7692 14.1913 14.7692 13.5385V7.14954C14.2839 7.65679 13.624 7.96077 12.9231 8C12.2894 7.96659 11.6865 7.71658 11.2151 7.2918C10.7437 6.86702 10.4325 6.29324 10.3335 5.66646C9.70676 5.56751 9.13298 5.25631 8.7082 4.78492C8.28342 4.31354 8.03341 3.71058 8 3.07692C8.03923 2.37598 8.34321 1.71611 8.85046 1.23077H3.79815H2.46154ZM3.69231 3.69231C4.01873 3.69231 4.33178 3.82198 4.56259 4.05279C4.79341 4.28361 4.92308 4.59666 4.92308 4.92308C4.92308 5.2495 4.79341 5.56255 4.56259 5.79336C4.33178 6.02418 4.01873 6.15385 3.69231 6.15385C3.36589 6.15385 3.05284 6.02418 2.82202 5.79336C2.59121 5.56255 2.46154 5.2495 2.46154 4.92308C2.46154 4.59666 2.59121 4.28361 2.82202 4.05279C3.05284 3.82198 3.36589 3.69231 3.69231 3.69231ZM9.84615 7.63938C9.92711 7.6394 10.0073 7.65539 10.082 7.68644C10.1568 7.71748 10.2247 7.76298 10.2818 7.82031L12.7434 10.2818C12.8584 10.3972 12.923 10.5534 12.9231 10.7163V13.5385C12.9231 13.7017 12.8582 13.8582 12.7428 13.9736C12.6274 14.089 12.4709 14.1538 12.3077 14.1538H2.46154C2.29833 14.1538 2.1418 14.089 2.0264 13.9736C1.91099 13.8582 1.84615 13.7017 1.84615 13.5385V10.7163C1.84619 10.5534 1.91081 10.3972 2.02585 10.2818L3.25662 9.05108C3.31378 8.99377 3.38169 8.9483 3.45645 8.91728C3.53121 8.88625 3.61136 8.87029 3.69231 8.87029C3.77325 8.87029 3.8534 8.88625 3.92816 8.91728C4.00293 8.9483 4.07084 8.99377 4.128 9.05108L5.71815 10.6412C5.77532 10.6985 5.84323 10.744 5.91799 10.775C5.99275 10.8061 6.0729 10.822 6.15385 10.822C6.23479 10.822 6.31494 10.8061 6.3897 10.775C6.46447 10.744 6.53237 10.6985 6.58954 10.6412L9.41046 7.82031C9.46761 7.76298 9.53552 7.71748 9.61028 7.68644C9.68505 7.65539 9.7652 7.6394 9.84615 7.63938Z" fill="white"/>
</svg>
