<svg width="129" height="111" viewBox="0 0 129 111" fill="none" xmlns="http://www.w3.org/2000/svg">
<path d="M73.3785 3.72461H65.2646V5.59329H73.3785V3.72461Z" fill="#6976EB"/>
<path d="M70.5955 6.42432H65.2646V8.29299H70.5955V6.42432Z" fill="#6976EB"/>
<path d="M68.3342 9.12451H65.2646V10.9932H68.3342V9.12451Z" fill="#6976EB"/>
<g opacity="0.2">
<path d="M73.3785 3.72461H65.2646V5.59329H73.3785V3.72461Z" fill="black"/>
<path d="M70.5955 6.42432H65.2646V8.29299H70.5955V6.42432Z" fill="black"/>
<path d="M68.3342 9.12451H65.2646V10.9932H68.3342V9.12451Z" fill="black"/>
</g>
<path d="M51.1749 24.4179V30.0439H53.9264V24.4179H51.1749Z" fill="#6976EB"/>
<path d="M55.1503 26.3496V30.0439H57.9017V26.3496H55.1503Z" fill="#6976EB"/>
<path d="M59.1227 27.9139V30.0405H61.8741V27.9139H59.1227Z" fill="#6976EB"/>
<path d="M50.5586 34.1479H83.8767C84.313 34.1487 84.7452 34.0634 85.1485 33.897C85.5518 33.7305 85.9184 33.4862 86.2272 33.1779C86.536 32.8696 86.781 32.5035 86.9481 32.1005C87.1153 31.6974 87.2013 31.2654 87.2013 30.829V3.37213C87.2013 2.9358 87.1153 2.50376 86.9481 2.10072C86.781 1.69767 86.536 1.33155 86.2272 1.02328C85.9184 0.715018 85.5518 0.470669 85.1485 0.304216C84.7452 0.137763 84.313 0.052474 83.8767 0.0532276H50.5586C50.1224 0.0528511 49.6904 0.138399 49.2872 0.304986C48.8841 0.471573 48.5177 0.715935 48.209 1.02412C47.9002 1.33231 47.6552 1.69829 47.488 2.10116C47.3207 2.50404 47.2344 2.93591 47.234 3.37213V30.829C47.2344 31.2653 47.3207 31.6971 47.488 32.1C47.6552 32.5029 47.9002 32.8689 48.209 33.177C48.5177 33.4852 48.8841 33.7296 49.2872 33.8962C49.6904 34.0628 50.1224 34.1483 50.5586 34.1479Z" stroke="#263238" stroke-width="0.106297" stroke-miterlimit="10"/>
<path d="M71.5671 24.7212H83.447" stroke="#263238" stroke-width="0.106297" stroke-miterlimit="10"/>
<path d="M71.5671 25.9907H83.447" stroke="#263238" stroke-width="0.106297" stroke-miterlimit="10"/>
<path d="M71.5671 27.2607H83.447" stroke="#263238" stroke-width="0.106297" stroke-miterlimit="10"/>
<path d="M71.5671 28.5332H83.447" stroke="#263238" stroke-width="0.106297" stroke-miterlimit="10"/>
<path d="M71.5671 29.8027H83.447" stroke="#263238" stroke-width="0.106297" stroke-miterlimit="10"/>
<path d="M50.811 4.00293H62.6909" stroke="#263238" stroke-width="0.106297" stroke-miterlimit="10"/>
<path d="M50.811 5.27246H62.6909" stroke="#263238" stroke-width="0.106297" stroke-miterlimit="10"/>
<path d="M50.811 6.54199H62.6909" stroke="#263238" stroke-width="0.106297" stroke-miterlimit="10"/>
<path d="M50.811 7.81152H62.6909" stroke="#263238" stroke-width="0.106297" stroke-miterlimit="10"/>
<path d="M50.811 9.08447H62.6909" stroke="#263238" stroke-width="0.106297" stroke-miterlimit="10"/>
<path d="M81.9593 13.9877L84.2235 15.1771L83.9684 8.7915L78.5573 12.205L80.8215 13.3915L79.119 16.6331C78.818 16.6343 78.5257 16.735 78.2879 16.9197L75.29 15.5268C75.29 15.1604 75.1444 14.809 74.8854 14.5499C74.6263 14.2909 74.2749 14.1453 73.9085 14.1453C73.5422 14.1453 73.1908 14.2909 72.9317 14.5499C72.6726 14.809 72.5271 15.1604 72.5271 15.5268C72.5269 15.7247 72.57 15.9203 72.6532 16.1L68.7238 20.3589C68.5987 20.3188 68.4683 20.2975 68.3369 20.2959C68.2706 20.2982 68.2045 20.3049 68.1391 20.316L62.4901 13.1766C62.5714 12.9965 62.6124 12.8009 62.6105 12.6034C62.6105 12.237 62.465 11.8856 62.2059 11.6265C61.9468 11.3675 61.5954 11.2219 61.2291 11.2219C60.8627 11.2219 60.5113 11.3675 60.2522 11.6265C59.9932 11.8856 59.8476 12.237 59.8476 12.6034C59.8506 12.7456 59.8747 12.8867 59.9193 13.0218L53.4678 19.5908C53.3162 19.5354 53.1562 19.5063 52.9949 19.5049C52.7223 19.5054 52.4561 19.5868 52.2297 19.7386C52.0034 19.8904 51.8272 20.1059 51.7233 20.3579C51.6194 20.6098 51.5925 20.8869 51.646 21.1541C51.6995 21.4214 51.831 21.6667 52.0239 21.8592C52.2168 22.0518 52.4625 22.1828 52.7298 22.2357C52.9972 22.2887 53.2742 22.2612 53.5259 22.1568C53.7777 22.0524 53.9928 21.8757 54.1442 21.649C54.2955 21.4224 54.3763 21.156 54.3763 20.8834C54.3757 20.7692 54.3603 20.6555 54.3304 20.5452L60.8364 13.9017C60.9635 13.9417 61.0958 13.9629 61.2291 13.9648C61.3136 13.9646 61.398 13.9569 61.4813 13.9418L67.1016 21.0669C67 21.2702 66.95 21.4955 66.9563 21.7227C66.9626 21.9499 67.0248 22.1721 67.1375 22.3695C67.2502 22.567 67.4099 22.7335 67.6024 22.8544C67.7949 22.9754 68.0142 23.0469 68.241 23.0628C68.4678 23.0786 68.695 23.0382 68.9024 22.9452C69.1098 22.8522 69.2911 22.7095 69.4301 22.5296C69.5692 22.3498 69.6617 22.1384 69.6995 21.9142C69.7372 21.6901 69.7191 21.46 69.6467 21.2446L73.6764 16.8795C73.7531 16.8931 73.8307 16.9008 73.9085 16.9025C74.1823 16.9028 74.4499 16.8209 74.6766 16.6675L77.7433 18.1005C77.7551 18.3131 77.816 18.5201 77.9212 18.7053C78.0264 18.8904 78.173 19.0487 78.3496 19.1677C78.5263 19.2866 78.728 19.3631 78.9392 19.391C79.1503 19.4189 79.365 19.3975 79.5664 19.3285C79.7679 19.2595 79.9507 19.1448 80.1003 18.9933C80.25 18.8418 80.3626 18.6578 80.4292 18.4555C80.4958 18.2532 80.5147 18.0383 80.4843 17.8275C80.4539 17.6167 80.375 17.4159 80.254 17.2407L81.9593 13.9877Z" fill="#263238"/>
<path d="M39.619 20.262L35.7441 14.206L29.3413 18.9149L23.4372 7.22998L7.8573 17.1351V25.1372H42.9895V18.4105L39.619 20.262Z" fill="#263238" stroke="#263238" stroke-width="0.116049" stroke-linecap="round" stroke-linejoin="round"/>
<path d="M40.2926 24.8018L36.0823 18.4105L29.006 21.2708L20.7489 13.3662L7.8573 18.571V30.1843H42.9895V22.9503L40.2926 24.8018Z" fill="#6976EB" stroke="#263238" stroke-width="0.0876495" stroke-miterlimit="10"/>
<path opacity="0.2" d="M40.2926 24.8018L36.0823 18.4105L29.006 21.2708L20.7489 13.3662L7.8573 18.571V30.1843H42.9895V22.9503L40.2926 24.8018Z" fill="black"/>
<path d="M40.2926 24.8018L36.0823 18.4105L29.006 21.2708L20.7489 13.3662L7.8573 18.571V30.1843H42.9895V22.9503L40.2926 24.8018Z" stroke="#263238" stroke-width="0.0876495" stroke-miterlimit="10"/>
<path d="M27.8195 4.26662H24.9907C24.8178 4.26534 24.6495 4.32269 24.5133 4.42934C24.3771 4.53599 24.281 4.68563 24.2408 4.85387C24.2006 5.0221 24.2185 5.19901 24.2917 5.35573C24.3649 5.51245 24.4891 5.63975 24.6439 5.71685L23.6552 6.7687L25.4579 5.80283H27.8195C28.0233 5.80283 28.2186 5.72191 28.3627 5.57786C28.5067 5.43381 28.5877 5.23844 28.5877 5.03473C28.5877 4.83101 28.5067 4.63564 28.3627 4.4916C28.2186 4.34755 28.0233 4.26662 27.8195 4.26662Z" fill="#6976EB"/>
<path opacity="0.2" d="M27.8195 4.26662H24.9907C24.8178 4.26534 24.6495 4.32269 24.5133 4.42934C24.3771 4.53599 24.281 4.68563 24.2408 4.85387C24.2006 5.0221 24.2185 5.19901 24.2917 5.35573C24.3649 5.51245 24.4891 5.63975 24.6439 5.71685L23.6552 6.7687L25.4579 5.80283H27.8195C28.0233 5.80283 28.2186 5.72191 28.3627 5.57786C28.5067 5.43381 28.5877 5.23844 28.5877 5.03473C28.5877 4.83101 28.5067 4.63564 28.3627 4.4916C28.2186 4.34755 28.0233 4.26662 27.8195 4.26662Z" fill="black"/>
<path d="M40.2094 11.1045H37.3806C37.2077 11.1032 37.0393 11.1606 36.9032 11.2672C36.767 11.3739 36.6709 11.5235 36.6307 11.6918C36.5905 11.86 36.6084 12.0369 36.6816 12.1936C36.7548 12.3503 36.879 12.4776 37.0338 12.5547L36.045 13.6152L37.8478 12.6465H40.2094C40.4132 12.6465 40.6085 12.5655 40.7526 12.4215C40.8966 12.2774 40.9775 12.0821 40.9775 11.8784C40.9775 11.6746 40.8966 11.4793 40.7526 11.3352C40.6085 11.1912 40.4132 11.1102 40.2094 11.1102V11.1045Z" fill="#6976EB"/>
<path opacity="0.2" d="M40.2094 11.1045H37.3806C37.2077 11.1032 37.0393 11.1606 36.9032 11.2672C36.767 11.3739 36.6709 11.5235 36.6307 11.6918C36.5905 11.86 36.6084 12.0369 36.6816 12.1936C36.7548 12.3503 36.879 12.4776 37.0338 12.5547L36.045 13.6152L37.8478 12.6465H40.2094C40.4132 12.6465 40.6085 12.5655 40.7526 12.4215C40.8966 12.2774 40.9775 12.0821 40.9775 11.8784C40.9775 11.6746 40.8966 11.4793 40.7526 11.3352C40.6085 11.1912 40.4132 11.1102 40.2094 11.1102V11.1045Z" fill="black"/>
<path d="M9.27593 34.1479H42.5939C43.0303 34.1487 43.4625 34.0634 43.8658 33.897C44.2691 33.7305 44.6357 33.4862 44.9445 33.1779C45.2533 32.8696 45.4982 32.5035 45.6654 32.1005C45.8325 31.6974 45.9186 31.2654 45.9186 30.829V3.37213C45.9186 2.9358 45.8325 2.50376 45.6654 2.10072C45.4982 1.69767 45.2533 1.33155 44.9445 1.02328C44.6357 0.715018 44.2691 0.470669 43.8658 0.304216C43.4625 0.137763 43.0303 0.052474 42.5939 0.0532276H9.27593C8.8396 0.052474 8.40741 0.137763 8.00408 0.304216C7.60075 0.470669 7.2342 0.715018 6.9254 1.02328C6.61661 1.33155 6.37163 1.69767 6.20448 2.10072C6.03733 2.50376 5.95129 2.9358 5.95129 3.37213V30.829C5.95129 31.2654 6.03733 31.6974 6.20448 32.1005C6.37163 32.5035 6.61661 32.8696 6.9254 33.1779C7.2342 33.4862 7.60075 33.7305 8.00408 33.897C8.40741 34.0634 8.8396 34.1487 9.27593 34.1479Z" stroke="#263238" stroke-width="0.106297" stroke-miterlimit="10"/>
<path d="M8.48206 3.75928H10.7778" stroke="#263238" stroke-width="0.106297" stroke-miterlimit="10"/>
<path d="M8.48206 6.2583H10.7778" stroke="#263238" stroke-width="0.106297" stroke-miterlimit="10"/>
<path d="M8.48206 8.75732H10.7778" stroke="#263238" stroke-width="0.106297" stroke-miterlimit="10"/>
<path d="M8.48206 11.2568H10.7778" stroke="#263238" stroke-width="0.106297" stroke-miterlimit="10"/>
<path d="M8.48206 13.7559H10.7778" stroke="#263238" stroke-width="0.106297" stroke-miterlimit="10"/>
<path d="M98.6457 7.14697C97.1531 7.14924 95.6946 7.59392 94.4547 8.42481C93.2147 9.25571 92.2489 10.4355 91.6793 11.8152C91.1097 13.1948 90.9618 14.7123 91.2544 16.176C91.547 17.6396 92.2668 18.9837 93.3231 20.0383C94.3793 21.093 95.7245 21.8108 97.1886 22.1012C98.6527 22.3915 100.17 22.2414 101.549 21.6697C102.928 21.0979 104.106 20.1303 104.935 18.8891C105.764 17.6479 106.206 16.1888 106.206 14.6962C106.203 12.693 105.405 10.7728 103.988 9.35739C102.57 7.94196 100.649 7.14697 98.6457 7.14697ZM98.6457 20.0271C97.5915 20.0231 96.5621 19.7068 95.6876 19.1182C94.813 18.5296 94.1325 17.6951 93.732 16.7199C93.3314 15.7448 93.2288 14.6729 93.4371 13.6395C93.6454 12.6061 94.1553 11.6576 94.9023 10.9137C95.6493 10.1699 96.6 9.66415 97.6343 9.46029C98.6686 9.25644 99.7401 9.36364 100.713 9.76836C101.687 10.1731 102.518 10.8572 103.103 11.7342C103.688 12.6113 104 13.642 103.999 14.6962C103.998 15.3978 103.858 16.0922 103.588 16.7397C103.319 17.3873 102.924 17.9754 102.427 18.4704C101.929 18.9655 101.34 19.3577 100.691 19.6248C100.042 19.8919 99.3472 20.0286 98.6457 20.0271Z" fill="#6976EB" stroke="#263238" stroke-width="0.106297" stroke-miterlimit="10"/>
<g opacity="0.2">
<path d="M98.6457 7.14697C97.1531 7.14924 95.6946 7.59392 94.4547 8.42481C93.2147 9.25571 92.2489 10.4355 91.6793 11.8152C91.1097 13.1948 90.9618 14.7123 91.2544 16.176C91.547 17.6396 92.2668 18.9837 93.3231 20.0383C94.3793 21.093 95.7245 21.8108 97.1886 22.1012C98.6527 22.3915 100.17 22.2414 101.549 21.6697C102.928 21.0979 104.106 20.1303 104.935 18.8891C105.764 17.6479 106.206 16.1888 106.206 14.6962C106.203 12.693 105.405 10.7728 103.988 9.35739C102.57 7.94196 100.649 7.14697 98.6457 7.14697ZM98.6457 20.0271C97.5915 20.0231 96.5621 19.7068 95.6876 19.1182C94.813 18.5296 94.1325 17.6951 93.732 16.7199C93.3314 15.7448 93.2288 14.6729 93.4371 13.6395C93.6454 12.6061 94.1553 11.6576 94.9023 10.9137C95.6493 10.1699 96.6 9.66415 97.6343 9.46029C98.6686 9.25643 99.7401 9.36364 100.713 9.76836C101.687 10.1731 102.518 10.8572 103.103 11.7342C103.688 12.6113 104 13.642 103.999 14.6962C103.998 15.3978 103.858 16.0922 103.588 16.7397C103.319 17.3873 102.924 17.9754 102.427 18.4704C101.929 18.9655 101.34 19.3577 100.691 19.6248C100.042 19.8919 99.3472 20.0286 98.6457 20.0271Z" fill="black"/>
</g>
<path d="M98.6457 7.14697C97.1531 7.14924 95.6946 7.59392 94.4547 8.42481C93.2147 9.25571 92.2489 10.4355 91.6793 11.8152C91.1097 13.1948 90.9618 14.7123 91.2544 16.176C91.547 17.6396 92.2668 18.9837 93.3231 20.0383C94.3793 21.093 95.7245 21.8108 97.1886 22.1012C98.6527 22.3915 100.17 22.2414 101.549 21.6697C102.928 21.0979 104.106 20.1303 104.935 18.8891C105.764 17.6479 106.206 16.1888 106.206 14.6962C106.203 12.693 105.405 10.7728 103.988 9.35739C102.57 7.94196 100.649 7.14697 98.6457 7.14697ZM98.6457 20.0271C97.5915 20.0231 96.5621 19.7068 95.6876 19.1182C94.813 18.5296 94.1325 17.6951 93.732 16.7199C93.3314 15.7448 93.2288 14.6729 93.4371 13.6395C93.6454 12.6061 94.1553 11.6576 94.9023 10.9137C95.6493 10.1699 96.6 9.66415 97.6343 9.46029C98.6686 9.25643 99.7401 9.36364 100.713 9.76836C101.687 10.1731 102.518 10.8572 103.103 11.7342C103.688 12.6113 104 13.642 103.999 14.6962C103.998 15.3978 103.858 16.0922 103.588 16.7397C103.319 17.3873 102.924 17.9754 102.427 18.4704C101.929 18.9655 101.34 19.3577 100.691 19.6248C100.042 19.8919 99.3472 20.0286 98.6457 20.0271Z" stroke="#263238" stroke-width="0.106297" stroke-miterlimit="10"/>
<path d="M98.6458 7.14645C97.6255 7.14232 96.6151 7.34632 95.6763 7.74597C94.7375 8.14562 93.8901 8.73254 93.1859 9.47083L94.788 11.0042C95.3978 10.3657 96.1565 9.88847 96.996 9.61527C97.8355 9.34206 98.7297 9.28141 99.5985 9.43876C100.467 9.5961 101.283 9.96651 101.974 10.5168C102.664 11.0671 103.207 11.7801 103.554 12.5919C103.901 13.4037 104.042 14.2889 103.963 15.1682C103.883 16.0475 103.587 16.8935 103.101 17.6303C102.614 18.367 101.953 18.9716 101.175 19.3898C100.398 19.808 99.5286 20.0268 98.6458 20.0266V22.242C99.6493 22.2616 100.647 22.0808 101.58 21.7103C102.512 21.3397 103.362 20.7869 104.079 20.0841C104.795 19.3813 105.365 18.5426 105.753 17.6171C106.142 16.6917 106.342 15.698 106.342 14.6942C106.342 13.6905 106.142 12.6968 105.753 11.7713C105.365 10.8459 104.795 10.0072 104.079 9.30438C103.362 8.60157 102.512 8.04872 101.58 7.6782C100.647 7.30767 99.6493 7.1269 98.6458 7.14645Z" fill="#263238" stroke="#263238" stroke-width="0.106297" stroke-linecap="round" stroke-linejoin="round"/>
<path d="M117.292 7.14697C115.8 7.14924 114.341 7.59392 113.101 8.42481C111.861 9.25571 110.896 10.4355 110.326 11.8152C109.756 13.1948 109.609 14.7123 109.901 16.176C110.194 17.6396 110.914 18.9837 111.97 20.0383C113.026 21.093 114.371 21.8108 115.835 22.1012C117.299 22.3915 118.817 22.2414 120.195 21.6697C121.574 21.0979 122.753 20.1303 123.582 18.8891C124.411 17.6479 124.853 16.1888 124.853 14.6962C124.85 12.693 124.052 10.7728 122.635 9.35739C121.217 7.94196 119.296 7.14697 117.292 7.14697ZM117.292 20.0271C116.237 20.0265 115.206 19.7131 114.33 19.1266C113.453 18.54 112.77 17.7066 112.366 16.7318C111.963 15.757 111.858 14.6845 112.065 13.65C112.271 12.6154 112.779 11.6653 113.526 10.9198C114.272 10.1742 115.223 9.66675 116.258 9.4615C117.292 9.25626 118.365 9.36246 119.339 9.76668C120.313 10.1709 121.146 10.855 121.732 11.7324C122.317 12.6099 122.63 13.6413 122.629 14.6962C122.625 16.1099 122.062 17.4645 121.061 18.4635C120.061 19.4626 118.706 20.0248 117.292 20.0271Z" fill="#6976EB" stroke="#263238" stroke-width="0.106297" stroke-miterlimit="10"/>
<g opacity="0.2">
<path d="M117.292 7.14697C115.8 7.14924 114.341 7.59392 113.101 8.42481C111.861 9.25571 110.896 10.4355 110.326 11.8152C109.756 13.1948 109.609 14.7123 109.901 16.176C110.194 17.6396 110.914 18.9837 111.97 20.0383C113.026 21.093 114.371 21.8108 115.835 22.1012C117.299 22.3915 118.817 22.2414 120.195 21.6697C121.574 21.0979 122.753 20.1303 123.582 18.8891C124.411 17.6479 124.853 16.1888 124.853 14.6962C124.85 12.693 124.052 10.7728 122.635 9.35739C121.217 7.94196 119.296 7.14697 117.292 7.14697ZM117.292 20.0271C116.237 20.0265 115.206 19.7131 114.33 19.1266C113.453 18.54 112.77 17.7066 112.366 16.7318C111.963 15.757 111.858 14.6845 112.065 13.65C112.271 12.6154 112.779 11.6653 113.526 10.9198C114.272 10.1742 115.223 9.66675 116.258 9.4615C117.292 9.25626 118.365 9.36246 119.339 9.76668C120.313 10.1709 121.146 10.855 121.732 11.7324C122.317 12.6099 122.63 13.6413 122.629 14.6962C122.625 16.1099 122.062 17.4645 121.061 18.4635C120.061 19.4626 118.706 20.0248 117.292 20.0271Z" fill="black"/>
</g>
<path d="M117.292 7.14697C115.8 7.14924 114.341 7.59392 113.101 8.42481C111.861 9.25571 110.896 10.4355 110.326 11.8152C109.756 13.1948 109.609 14.7123 109.901 16.176C110.194 17.6396 110.914 18.9837 111.97 20.0383C113.026 21.093 114.371 21.8108 115.835 22.1012C117.299 22.3915 118.817 22.2414 120.195 21.6697C121.574 21.0979 122.753 20.1303 123.582 18.8891C124.411 17.6479 124.853 16.1888 124.853 14.6962C124.85 12.693 124.052 10.7728 122.635 9.35739C121.217 7.94196 119.296 7.14697 117.292 7.14697ZM117.292 20.0271C116.237 20.0265 115.206 19.7131 114.33 19.1266C113.453 18.54 112.77 17.7066 112.366 16.7318C111.963 15.757 111.858 14.6845 112.065 13.65C112.271 12.6154 112.779 11.6653 113.526 10.9198C114.272 10.1742 115.223 9.66675 116.258 9.4615C117.292 9.25626 118.365 9.36246 119.339 9.76668C120.313 10.1709 121.146 10.855 121.732 11.7324C122.317 12.6099 122.63 13.6413 122.629 14.6962C122.625 16.1099 122.062 17.4645 121.061 18.4635C120.061 19.4626 118.706 20.0248 117.292 20.0271Z" stroke="#263238" stroke-width="0.106297" stroke-miterlimit="10"/>
<path d="M120.236 7.73975L119.376 9.78039C120.51 10.2598 121.443 11.1166 122.017 12.2054C122.591 13.2943 122.77 14.5481 122.525 15.7543C122.28 16.9605 121.626 18.0449 120.673 18.8236C119.719 19.6023 118.526 20.0273 117.295 20.0266V22.242C119.039 22.2461 120.73 21.646 122.082 20.5439C123.433 19.4418 124.361 17.9057 124.708 16.1967C125.055 14.4878 124.799 12.7114 123.985 11.1696C123.17 9.62789 121.846 8.41591 120.239 7.73975H120.236Z" fill="#263238" stroke="#263238" stroke-width="0.106297" stroke-linecap="round" stroke-linejoin="round"/>
<path d="M123.867 0.0532237H92.7131C92.1707 0.0528471 91.6336 0.159301 91.1324 0.366505C90.6311 0.573709 90.1756 0.877605 89.7919 1.26085C89.4081 1.64409 89.1036 2.09916 88.8957 2.60009C88.6878 3.10102 88.5806 3.638 88.5802 4.18036V30.0237C88.5817 31.1185 89.0179 32.168 89.7929 32.9413C90.5679 33.7147 91.6182 34.1487 92.7131 34.1479H123.867C124.409 34.1487 124.946 34.0426 125.448 33.8357C125.949 33.6288 126.404 33.3252 126.788 32.9422C127.172 32.5592 127.477 32.1043 127.685 31.6035C127.892 31.1027 128 30.5659 128 30.0237V4.18036C128 3.638 127.892 3.10102 127.685 2.60009C127.477 2.09916 127.172 1.64409 126.788 1.26085C126.405 0.877605 125.949 0.573709 125.448 0.366505C124.947 0.159301 124.41 0.0528471 123.867 0.0532237Z" stroke="#263238" stroke-width="0.106297" stroke-miterlimit="10"/>
<path d="M91.9277 24.7212H103.805" stroke="#263238" stroke-width="0.106297" stroke-miterlimit="10"/>
<path d="M91.9277 25.9907H103.805" stroke="#263238" stroke-width="0.106297" stroke-miterlimit="10"/>
<path d="M91.9277 27.2607H103.805" stroke="#263238" stroke-width="0.106297" stroke-miterlimit="10"/>
<path d="M91.9277 28.5332H103.805" stroke="#263238" stroke-width="0.106297" stroke-miterlimit="10"/>
<path d="M91.9277 29.8027H103.805" stroke="#263238" stroke-width="0.106297" stroke-miterlimit="10"/>
<path d="M111.543 24.7212H123.423" stroke="#263238" stroke-width="0.106297" stroke-miterlimit="10"/>
<path d="M111.543 25.9907H123.423" stroke="#263238" stroke-width="0.106297" stroke-miterlimit="10"/>
<path d="M111.543 27.2607H123.423" stroke="#263238" stroke-width="0.106297" stroke-miterlimit="10"/>
<path d="M111.543 28.5332H123.423" stroke="#263238" stroke-width="0.106297" stroke-miterlimit="10"/>
<path d="M111.543 29.8027H123.423" stroke="#263238" stroke-width="0.106297" stroke-miterlimit="10"/>
<path d="M101.953 3.55273H113.83" stroke="#263238" stroke-width="0.106297" stroke-miterlimit="10"/>
<path d="M101.953 4.82471H113.83" stroke="#263238" stroke-width="0.106297" stroke-miterlimit="10"/>
<path d="M88.4539 81.9255H123.615C124.777 81.9262 125.891 81.4657 126.713 80.645C127.536 79.8243 127.998 78.7107 128 77.549V40.5166C128 39.9411 127.886 39.3713 127.665 38.8398C127.445 38.3082 127.122 37.8254 126.714 37.4187C126.307 37.012 125.824 36.6896 125.292 36.4697C124.76 36.2498 124.19 36.1368 123.615 36.1372H71.6817C71.1062 36.1368 70.5363 36.2498 70.0045 36.4697C69.4727 36.6896 68.9894 37.012 68.5822 37.4187C68.175 37.8254 67.8519 38.3082 67.6313 38.8398C67.4107 39.3713 67.297 39.9411 67.2966 40.5166V64.9182" stroke="#263238" stroke-width="0.106297" stroke-miterlimit="10"/>
<path d="M84.304 57.7329H75.9408V69.8879H84.304V57.7329Z" fill="#6976EB" stroke="#263238" stroke-width="0.116049" stroke-miterlimit="10"/>
<path opacity="0.2" d="M84.304 57.7329H75.9408V69.8879H84.304V57.7329Z" fill="black"/>
<path d="M84.304 57.7329H75.9408V69.8879H84.304V57.7329Z" stroke="#263238" stroke-width="0.116049" stroke-miterlimit="10"/>
<path d="M95.9171 51.6538H87.554V65.11H95.9171V51.6538Z" fill="#6976EB" stroke="#263238" stroke-width="0.116049" stroke-miterlimit="10"/>
<path opacity="0.2" d="M95.9171 51.6538H87.554V65.11H95.9171V51.6538Z" fill="black"/>
<path d="M95.9171 51.6538H87.554V65.11H95.9171V51.6538Z" stroke="#263238" stroke-width="0.116049" stroke-miterlimit="10"/>
<path d="M107.53 46.6641H99.1672V55.5632H107.53V46.6641Z" fill="#6976EB" stroke="#263238" stroke-width="0.116049" stroke-miterlimit="10"/>
<path opacity="0.2" d="M107.53 46.6641H99.1672V55.5632H107.53V46.6641Z" fill="black"/>
<path d="M107.53 46.6641H99.1672V55.5632H107.53V46.6641Z" stroke="#263238" stroke-width="0.116049" stroke-miterlimit="10"/>
<path d="M84.304 69.8853H75.9408V74.8779H84.304V69.8853Z" fill="#263238" stroke="#263238" stroke-width="0.116049" stroke-linecap="round" stroke-linejoin="round"/>
<path d="M95.9171 65.1104H87.554V74.8779H95.9171V65.1104Z" fill="#263238" stroke="#263238" stroke-width="0.116049" stroke-linecap="round" stroke-linejoin="round"/>
<path d="M118.459 51.6538H110.096V65.11H118.459V51.6538Z" fill="#6976EB" stroke="#263238" stroke-width="0.116049" stroke-miterlimit="10"/>
<path opacity="0.2" d="M118.459 51.6538H110.096V65.11H118.459V51.6538Z" fill="black"/>
<path d="M118.459 51.6538H110.096V65.11H118.459V51.6538Z" stroke="#263238" stroke-width="0.116049" stroke-miterlimit="10"/>
<path d="M118.459 65.1104H110.096V74.8779H118.459V65.1104Z" fill="#263238" stroke="#263238" stroke-width="0.116049" stroke-linecap="round" stroke-linejoin="round"/>
<path d="M107.53 55.5605H99.1672V74.8778H107.53V55.5605Z" fill="#263238" stroke="#263238" stroke-width="0.116049" stroke-linecap="round" stroke-linejoin="round"/>
<path d="M94.4669 46.6816H89.2478C89.0083 46.6816 88.7787 46.7768 88.6094 46.9461C88.4401 47.1154 88.345 47.345 88.345 47.5845V48.7853C88.345 49.0248 88.4401 49.2544 88.6094 49.4237C88.7787 49.593 89.0083 49.6881 89.2478 49.6881H91.1824L91.8588 50.8575L92.5323 49.6881H94.4669C94.7063 49.6881 94.936 49.593 95.1053 49.4237C95.2746 49.2544 95.3697 49.0248 95.3697 48.7853V47.5845C95.3697 47.345 95.2746 47.1154 95.1053 46.9461C94.936 46.7768 94.7063 46.6816 94.4669 46.6816Z" fill="#6976EB"/>
<mask id="mask0_1283_5236" style="mask-type:luminance" maskUnits="userSpaceOnUse" x="88" y="46" width="8" height="5">
<path d="M94.4668 46.6816H89.2477C89.0082 46.6816 88.7786 46.7768 88.6093 46.9461C88.44 47.1154 88.3448 47.345 88.3448 47.5845V48.7853C88.3448 49.0248 88.44 49.2544 88.6093 49.4237C88.7786 49.593 89.0082 49.6881 89.2477 49.6881H91.1823L91.8586 50.8575L92.5322 49.6881H94.4668C94.7062 49.6881 94.9358 49.593 95.1051 49.4237C95.2745 49.2544 95.3696 49.0248 95.3696 48.7853V47.5845C95.3696 47.345 95.2745 47.1154 95.1051 46.9461C94.9358 46.7768 94.7062 46.6816 94.4668 46.6816Z" fill="white"/>
</mask>
<g mask="url(#mask0_1283_5236)">
<path opacity="0.5" d="M94.4668 46.6816H89.2477C89.0082 46.6816 88.7786 46.7768 88.6093 46.9461C88.44 47.1154 88.3448 47.345 88.3448 47.5845V48.7853C88.3448 49.0248 88.44 49.2544 88.6093 49.4237C88.7786 49.593 89.0082 49.6881 89.2477 49.6881H91.1823L91.8586 50.8575L92.5322 49.6881H94.4668C94.7062 49.6881 94.9358 49.593 95.1051 49.4237C95.2745 49.2544 95.3696 49.0248 95.3696 48.7853V47.5845C95.3696 47.345 95.2745 47.1154 95.1051 46.9461C94.9358 46.7768 94.7062 46.6816 94.4668 46.6816Z" fill="white"/>
</g>
<path d="M94.4176 46.6987H89.1985C88.959 46.6987 88.7294 46.7939 88.5601 46.9632C88.3908 47.1325 88.2957 47.3621 88.2957 47.6015V48.8024C88.2957 49.0419 88.3908 49.2715 88.5601 49.4408C88.7294 49.6101 88.959 49.7052 89.1985 49.7052H91.1331L91.8095 50.8746L92.483 49.7052H94.4176C94.657 49.7052 94.8866 49.6101 95.056 49.4408C95.2253 49.2715 95.3204 49.0419 95.3204 48.8024V47.6015C95.3204 47.3621 95.2253 47.1325 95.056 46.9632C94.8866 46.7939 94.657 46.6987 94.4176 46.6987Z" stroke="#263238" stroke-width="0.116675" stroke-linecap="round" stroke-linejoin="round"/>
<path d="M82.7305 52.915H77.5143C77.2753 52.915 77.0461 53.0098 76.8769 53.1784C76.7077 53.3471 76.6122 53.576 76.6115 53.815V55.0187C76.6122 55.2577 76.7077 55.4866 76.8769 55.6553C77.0461 55.824 77.2753 55.9187 77.5143 55.9187H79.446L80.1224 57.088L80.7988 55.9187H82.7305C82.9694 55.9187 83.1986 55.824 83.3679 55.6553C83.5371 55.4866 83.6326 55.2577 83.6333 55.0187V53.815C83.6326 53.576 83.5371 53.3471 83.3679 53.1784C83.1986 53.0098 82.9694 52.915 82.7305 52.915Z" fill="#6976EB"/>
<mask id="mask1_1283_5236" style="mask-type:luminance" maskUnits="userSpaceOnUse" x="76" y="52" width="8" height="6">
<path d="M82.7305 52.915H77.5143C77.2753 52.915 77.0461 53.0098 76.8769 53.1784C76.7077 53.3471 76.6122 53.576 76.6115 53.815V55.0187C76.6122 55.2577 76.7077 55.4866 76.8769 55.6553C77.0461 55.824 77.2753 55.9187 77.5143 55.9187H79.446L80.1224 57.088L80.7988 55.9187H82.7305C82.9694 55.9187 83.1986 55.824 83.3679 55.6553C83.5371 55.4866 83.6326 55.2577 83.6333 55.0187V53.815C83.6326 53.576 83.5371 53.3471 83.3679 53.1784C83.1986 53.0098 82.9694 52.915 82.7305 52.915Z" fill="white"/>
</mask>
<g mask="url(#mask1_1283_5236)">
<path opacity="0.5" d="M82.7305 52.915H77.5143C77.2753 52.915 77.0461 53.0098 76.8769 53.1784C76.7077 53.3471 76.6122 53.576 76.6115 53.815V55.0187C76.6122 55.2577 76.7077 55.4866 76.8769 55.6553C77.0461 55.824 77.2753 55.9187 77.5143 55.9187H79.446L80.1224 57.088L80.7988 55.9187H82.7305C82.9694 55.9187 83.1986 55.824 83.3679 55.6553C83.5371 55.4866 83.6326 55.2577 83.6333 55.0187V53.815C83.6326 53.576 83.5371 53.3471 83.3679 53.1784C83.1986 53.0098 82.9694 52.915 82.7305 52.915Z" fill="white"/>
</g>
<path d="M82.7305 52.915H77.5143C77.2753 52.915 77.0461 53.0098 76.8769 53.1784C76.7077 53.3471 76.6122 53.576 76.6115 53.815V55.0187C76.6122 55.2577 76.7077 55.4866 76.8769 55.6553C77.0461 55.824 77.2753 55.9187 77.5143 55.9187H79.446L80.1224 57.088L80.7988 55.9187H82.7305C82.9694 55.9187 83.1986 55.824 83.3679 55.6553C83.5371 55.4866 83.6326 55.2577 83.6333 55.0187V53.815C83.6326 53.576 83.5371 53.3471 83.3679 53.1784C83.1986 53.0098 82.9694 52.915 82.7305 52.915Z" stroke="#263238" stroke-width="0.116675" stroke-linecap="round" stroke-linejoin="round"/>
<path d="M105.905 41.6743H100.686C100.447 41.6743 100.217 41.7694 100.048 41.9387C99.8787 42.1081 99.7836 42.3377 99.7836 42.5771V43.778C99.7836 43.8964 99.8069 44.0137 99.8523 44.1231C99.8977 44.2324 99.9643 44.3318 100.048 44.4154C100.132 44.499 100.232 44.5652 100.341 44.6103C100.451 44.6553 100.568 44.6783 100.686 44.678H102.621L103.294 45.8473L103.971 44.678H105.905C106.024 44.6783 106.141 44.6553 106.251 44.6103C106.36 44.5652 106.46 44.499 106.544 44.4154C106.628 44.3318 106.694 44.2324 106.74 44.1231C106.785 44.0137 106.808 43.8964 106.808 43.778V42.5771C106.808 42.3377 106.713 42.1081 106.544 41.9387C106.375 41.7694 106.145 41.6743 105.905 41.6743Z" fill="#6976EB"/>
<mask id="mask2_1283_5236" style="mask-type:luminance" maskUnits="userSpaceOnUse" x="99" y="41" width="8" height="5">
<path d="M105.905 41.6748H100.686C100.447 41.6748 100.217 41.7699 100.048 41.9392C99.8786 42.1085 99.7834 42.3382 99.7834 42.5776V43.7785C99.7834 43.8969 99.8068 44.0142 99.8522 44.1236C99.8976 44.2329 99.9642 44.3323 100.048 44.4159C100.132 44.4995 100.231 44.5657 100.341 44.6108C100.45 44.6558 100.568 44.6788 100.686 44.6784H102.621L103.294 45.8478L103.971 44.6784H105.905C106.024 44.6788 106.141 44.6558 106.251 44.6108C106.36 44.5657 106.46 44.4995 106.544 44.4159C106.627 44.3323 106.694 44.2329 106.739 44.1236C106.785 44.0142 106.808 43.8969 106.808 43.7785V42.5776C106.808 42.3382 106.713 42.1085 106.544 41.9392C106.374 41.7699 106.145 41.6748 105.905 41.6748Z" fill="white"/>
</mask>
<g mask="url(#mask2_1283_5236)">
<path opacity="0.5" d="M105.905 41.6748H100.686C100.447 41.6748 100.217 41.7699 100.048 41.9392C99.8786 42.1085 99.7834 42.3382 99.7834 42.5776V43.7785C99.7834 43.8969 99.8068 44.0142 99.8522 44.1236C99.8976 44.2329 99.9642 44.3323 100.048 44.4159C100.132 44.4995 100.231 44.5657 100.341 44.6108C100.45 44.6558 100.568 44.6788 100.686 44.6784H102.621L103.294 45.8478L103.971 44.6784H105.905C106.024 44.6788 106.141 44.6558 106.251 44.6108C106.36 44.5657 106.46 44.4995 106.544 44.4159C106.627 44.3323 106.694 44.2329 106.739 44.1236C106.785 44.0142 106.808 43.8969 106.808 43.7785V42.5776C106.808 42.3382 106.713 42.1085 106.544 41.9392C106.374 41.7699 106.145 41.6748 105.905 41.6748Z" fill="white"/>
</g>
<path d="M105.905 41.6743H100.686C100.447 41.6743 100.217 41.7694 100.048 41.9387C99.8787 42.1081 99.7836 42.3377 99.7836 42.5771V43.778C99.7836 43.8964 99.8069 44.0137 99.8523 44.1231C99.8977 44.2324 99.9643 44.3318 100.048 44.4154C100.132 44.499 100.232 44.5652 100.341 44.6103C100.451 44.6553 100.568 44.6783 100.686 44.678H102.621L103.295 45.8473L103.971 44.678H105.905C106.024 44.6783 106.141 44.6553 106.251 44.6103C106.36 44.5652 106.46 44.499 106.544 44.4154C106.628 44.3318 106.694 44.2324 106.74 44.1231C106.785 44.0137 106.808 43.8964 106.808 43.778V42.5771C106.808 42.3377 106.713 42.1081 106.544 41.9387C106.375 41.7694 106.145 41.6743 105.905 41.6743Z" stroke="#263238" stroke-width="0.116675" stroke-linecap="round" stroke-linejoin="round"/>
<path d="M116.897 46.604H111.681C111.441 46.604 111.212 46.6991 111.042 46.8684C110.873 47.0377 110.778 47.2674 110.778 47.5068V48.7077C110.778 48.8261 110.801 48.9434 110.847 49.0528C110.892 49.1621 110.959 49.2615 111.042 49.3451C111.126 49.4287 111.226 49.4949 111.335 49.54C111.445 49.585 111.562 49.608 111.681 49.6076H113.612L114.289 50.777L114.965 49.6076H116.897C117.015 49.608 117.133 49.585 117.243 49.54C117.352 49.495 117.452 49.4288 117.536 49.3452C117.62 49.2617 117.687 49.1624 117.733 49.053C117.778 48.9436 117.802 48.8263 117.803 48.7077V47.5068C117.802 47.2671 117.706 47.0375 117.536 46.8683C117.367 46.699 117.137 46.604 116.897 46.604Z" fill="#6976EB"/>
<mask id="mask3_1283_5236" style="mask-type:luminance" maskUnits="userSpaceOnUse" x="110" y="46" width="8" height="5">
<path d="M116.897 46.6045H111.681C111.441 46.6045 111.212 46.6996 111.042 46.8689C110.873 47.0382 110.778 47.2679 110.778 47.5073V48.7082C110.778 48.8266 110.801 48.9439 110.847 49.0532C110.892 49.1626 110.959 49.2619 111.042 49.3456C111.126 49.4292 111.226 49.4954 111.335 49.5405C111.445 49.5855 111.562 49.6085 111.681 49.6081H113.612L114.289 50.7775L114.965 49.6081H116.897C117.015 49.6085 117.133 49.5855 117.243 49.5405C117.352 49.4955 117.452 49.4293 117.536 49.3457C117.62 49.2622 117.687 49.1628 117.733 49.0535C117.778 48.9441 117.802 48.8267 117.803 48.7082V47.5073C117.802 47.2676 117.706 47.038 117.536 46.8687C117.367 46.6995 117.137 46.6045 116.897 46.6045Z" fill="white"/>
</mask>
<g mask="url(#mask3_1283_5236)">
<path opacity="0.5" d="M116.897 46.6045H111.681C111.441 46.6045 111.212 46.6996 111.042 46.8689C110.873 47.0382 110.778 47.2679 110.778 47.5073V48.7082C110.778 48.8266 110.801 48.9439 110.847 49.0532C110.892 49.1626 110.959 49.2619 111.042 49.3456C111.126 49.4292 111.226 49.4954 111.335 49.5405C111.445 49.5855 111.562 49.6085 111.681 49.6081H113.612L114.289 50.7775L114.965 49.6081H116.897C117.015 49.6085 117.133 49.5855 117.243 49.5405C117.352 49.4955 117.452 49.4293 117.536 49.3457C117.62 49.2622 117.687 49.1628 117.733 49.0535C117.778 48.9441 117.802 48.8267 117.803 48.7082V47.5073C117.802 47.2676 117.706 47.038 117.536 46.8687C117.367 46.6995 117.137 46.6045 116.897 46.6045Z" fill="white"/>
</g>
<path d="M116.897 46.604H111.681C111.441 46.604 111.212 46.6991 111.042 46.8684C110.873 47.0377 110.778 47.2674 110.778 47.5068V48.7077C110.778 48.8261 110.801 48.9434 110.847 49.0528C110.892 49.1621 110.959 49.2615 111.042 49.3451C111.126 49.4287 111.226 49.4949 111.335 49.54C111.445 49.585 111.562 49.608 111.681 49.6076H113.612L114.289 50.777L114.965 49.6076H116.897C117.015 49.608 117.133 49.585 117.243 49.54C117.352 49.495 117.452 49.4288 117.536 49.3452C117.62 49.2617 117.687 49.1624 117.733 49.053C117.778 48.9436 117.802 48.8263 117.803 48.7077V47.5068C117.802 47.2671 117.706 47.0375 117.536 46.8683C117.367 46.699 117.137 46.604 116.897 46.604Z" stroke="#263238" stroke-width="0.116675" stroke-linecap="round" stroke-linejoin="round"/>
<path d="M76.2245 39.9658H88.1043" stroke="#263238" stroke-width="0.106297" stroke-miterlimit="10"/>
<path d="M76.2245 41.2358H88.1043" stroke="#263238" stroke-width="0.106297" stroke-miterlimit="10"/>
<path d="M76.2245 42.5083H88.1043" stroke="#263238" stroke-width="0.106297" stroke-miterlimit="10"/>
<path d="M76.2245 43.7778H88.1043" stroke="#263238" stroke-width="0.106297" stroke-miterlimit="10"/>
<path d="M76.2245 45.0479H88.1043" stroke="#263238" stroke-width="0.106297" stroke-miterlimit="10"/>
<path d="M12.4803 60.2261C12.3227 60.4152 12.1622 60.6159 11.9902 60.8451C9.85784 63.7112 10.9699 69.7299 9.67441 71.9511C8.37895 74.1723 5.13456 73.5361 4.48683 77.0269C3.8391 80.5178 4.20023 84.1635 3.65281 85.9118C3.10539 87.6601 0.967305 88.7778 0.594716 90.8299C0.222128 92.882 0.110352 94.3695 0.110352 94.3695L12.4803 93.9625V60.2261Z" fill="#6976EB"/>
<path opacity="0.7" d="M12.3699 60.2261C12.2123 60.4152 12.0518 60.6159 11.8798 60.8451C9.74749 63.7112 10.8595 69.7299 9.56406 71.9511C8.2686 74.1724 5.02421 73.5361 4.37648 77.0269C3.72875 80.5178 4.08988 84.1635 3.54246 85.9118C2.99504 87.6601 0.856953 88.7778 0.484365 90.8299C0.111776 92.882 0 94.3695 0 94.3695L12.3699 93.9625V60.2261Z" fill="white"/>
<path d="M56.4686 94.0913L43.7662 95.5587L47.667 99.17L56.4256 98.4105" fill="#263238"/>
<path d="M56.4686 94.0913L43.7662 95.5587L47.667 99.17L56.4256 98.4105" stroke="#263238" stroke-width="0.0969739" stroke-linecap="round" stroke-linejoin="round"/>
<path d="M47.9078 96.1351L56.0446 95.2466" stroke="white" stroke-width="0.0484869" stroke-linecap="round" stroke-linejoin="round"/>
<path d="M48.5439 97.0235L55.9183 96.3901" stroke="white" stroke-width="0.0484869" stroke-linecap="round" stroke-linejoin="round"/>
<path d="M49.3064 97.7862L56.0445 97.1499" stroke="white" stroke-width="0.0484869" stroke-linecap="round" stroke-linejoin="round"/>
<path d="M48.7189 95.6133L51.0375 98.1412" stroke="white" stroke-width="0.0484869" stroke-linecap="round" stroke-linejoin="round"/>
<path d="M50.4355 95.5303L52.7399 97.912" stroke="white" stroke-width="0.0484869" stroke-linecap="round" stroke-linejoin="round"/>
<path d="M52.2183 95.2754L54.5197 97.6571" stroke="white" stroke-width="0.0484869" stroke-linecap="round" stroke-linejoin="round"/>
<path d="M54.1241 95.1489L56.0444 97.1494" stroke="white" stroke-width="0.0484869" stroke-linecap="round" stroke-linejoin="round"/>
<path d="M43.4796 64.0149C43.0611 63.8372 41.1237 56.2966 41.1237 56.2966L40.1263 53.4535C40.1263 53.4535 38.6273 48.3375 38.0541 47.386C37.4809 46.4345 35.188 45.6664 35.188 45.6664L34.3282 45.1935L30.6023 43.1872V43.2073L30.0664 42.0867L23.6521 36.9277C23.6521 36.9277 23.7668 38.1716 23.9387 39.3983C23.9215 39.3983 22.6031 40.2581 22.1331 41.0119C22.0443 41.1523 21.9669 41.4533 21.6115 42.2414C20.1785 42.9809 14.7817 45.8097 12.9961 47.1883C10.901 48.8018 10.5198 49.9425 10.6144 50.8941L10.7118 52.4131C10.7118 52.4131 11.6061 57.8586 12.5375 60.5441L12.4229 60.4897L12.3914 93.9137L39.2263 92.8963L39.2693 68.0675C40.1865 67.7666 41.1409 67.4141 41.7169 67.159L41.8602 67.288L43.0697 68.1736C43.2642 68.3198 43.4898 68.4189 43.729 68.4632C43.9682 68.5074 44.2144 68.4956 44.4483 68.4287C44.9613 68.2825 44.6403 67.6749 44.2677 67.4743C43.9849 67.2833 43.7167 67.0716 43.4652 66.8409L42.3475 65.448C43.0181 65.5683 44.0929 65.7575 44.54 65.8205C45.2049 65.9151 46.0619 66.1071 46.1565 65.2473C46.2511 64.3875 44.1474 64.3015 43.4796 64.0149Z" fill="white"/>
<path d="M23.6838 36.939C23.6838 36.939 24.0478 40.9801 24.2857 41.7081C24.5007 42.3673 25.5869 45.9642 26.5384 47.5778C27.49 49.1914 28.6507 49.0108 28.8313 47.1995C29.0119 45.3881 28.9201 42.4504 28.9201 42.4504" stroke="#263238" stroke-width="0.0969739" stroke-linecap="round" stroke-linejoin="round"/>
<path d="M23.9017 39.4932C23.9017 39.4932 22.6377 40.2641 22.1619 41.0236C21.6862 41.7832 19.6857 48.8136 19.6857 48.8136L23.4918 49.0056L20.256 50.4387" stroke="#263238" stroke-width="0.0969739" stroke-linecap="round" stroke-linejoin="round"/>
<path d="M20.3534 51.2837C20.3534 51.2837 23.5892 56.606 24.0649 57.1792C24.3572 57.5339 24.6118 57.9181 24.8245 58.3256" stroke="#263238" stroke-width="0.0969739" stroke-linecap="round" stroke-linejoin="round"/>
<path d="M24.1594 41.1299C24.1594 41.1299 25.7759 47.782 26.7389 51.2958C27.7019 54.8096 28.6219 59.1861 28.6219 59.1861" stroke="#263238" stroke-width="0.0969739" stroke-linecap="round" stroke-linejoin="round"/>
<path d="M28.9086 43.21C28.9086 43.21 29.2898 50.9053 29.2898 53.9462V58.7899" stroke="#263238" stroke-width="0.0969739" stroke-linecap="round" stroke-linejoin="round"/>
<path d="M30.2499 42.4478L32.8207 47.6755L30.7256 48.3404L33.9614 50.1431L31.0123 59.3604" stroke="#263238" stroke-width="0.0969739" stroke-linecap="round" stroke-linejoin="round"/>
<path d="M30.6311 43.21L34.3427 45.2047" stroke="#263238" stroke-width="0.0969739" stroke-linecap="round" stroke-linejoin="round"/>
<path d="M37.2947 51.0005L37.7704 59.9311" stroke="#263238" stroke-width="0.0969739" stroke-linecap="round" stroke-linejoin="round"/>
<path d="M21.5886 42.2588C21.5886 42.2588 15.1171 45.5834 13.0248 47.1999C10.9326 48.8163 10.5486 49.9542 10.6431 50.9057" stroke="#263238" stroke-width="0.0969739" stroke-linecap="round" stroke-linejoin="round"/>
<path d="M12.4515 60.501V93.7531" stroke="#263238" stroke-width="0.0969739" stroke-linecap="round" stroke-linejoin="round"/>
<path d="M29.2037 68.6724V92.5209" stroke="#263238" stroke-width="0.0969739" stroke-linecap="round" stroke-linejoin="round"/>
<path d="M14.7761 50.4326C14.7761 50.4326 16.9601 51.1979 17.9288 53.0522" stroke="#263238" stroke-width="0.0969739" stroke-linecap="round" stroke-linejoin="round"/>
<path d="M16.1947 50.3237C16.1947 50.3237 18.1608 51.089 19.035 52.9433" stroke="#263238" stroke-width="0.0969739" stroke-linecap="round" stroke-linejoin="round"/>
<path d="M14.885 80.8442H22.1304V82.2658H15.143" stroke="#263238" stroke-width="0.0969739" stroke-linecap="round" stroke-linejoin="round"/>
<path d="M41.6769 57.5521C40.9948 55.8325 40.4244 54.3995 40.1263 53.4565C40.1421 54.0281 40.0412 54.5968 39.8298 55.128C39.6184 55.6592 39.3009 56.1417 38.8968 56.5462C36.9192 58.4779 36.3603 57.8072 36.4492 60.4899C36.538 63.1725 37.5956 64.3906 36.9335 66.6777C36.2715 68.9648 33.3911 71.2233 33.4943 75.1842C33.5315 76.0526 33.773 76.9001 34.1993 77.6576L22.2708 93.5786L39.3296 93.077V70.3004L41.6769 57.5521Z" fill="#6976EB"/>
<path opacity="0.7" d="M41.6769 57.5521C40.9948 55.8325 40.4244 54.3995 40.1263 53.4565C40.1421 54.0281 40.0412 54.5968 39.8298 55.128C39.6184 55.6592 39.3009 56.1417 38.8968 56.5462C36.9192 58.4779 36.3603 57.8072 36.4492 60.4899C36.538 63.1725 37.5956 64.3906 36.9335 66.6777C36.2715 68.9648 33.3911 71.2233 33.4943 75.1842C33.5315 76.0526 33.773 76.9001 34.1993 77.6576L22.2708 93.5786L39.3296 93.077V70.3004L41.6769 57.5521Z" fill="white"/>
<path d="M39.3439 82.1943V92.0909" stroke="#263238" stroke-width="0.0969739" stroke-linecap="round" stroke-linejoin="round"/>
<path d="M33.781 29.0522C34.3542 28.9576 37.206 27.152 36.7302 25.3464C36.2544 23.5407 32.2505 21.3539 29.1093 22.4029C27.217 23.0329 25.4691 24.0335 23.9676 25.3464C23.9676 25.3464 21.8754 25.3464 21.1015 26.2062C20.3277 27.066 20.9124 28.3901 21.3881 29.3417C21.8009 30.1642 21.7837 32.3453 21.7722 32.9099C21.7462 32.9085 21.7204 32.9144 21.6977 32.9271C21.5384 33.015 21.3994 33.1355 21.2898 33.2806C21.1802 33.4258 21.1024 33.5925 21.0614 33.7697C20.9324 34.3429 21.1703 35.1082 21.7493 35.9737C21.9419 36.2987 22.2127 36.5704 22.537 36.7641C22.8614 36.9578 23.229 37.0674 23.6065 37.0829C23.8547 37.3689 24.0568 37.6919 24.2055 38.0402C24.4462 38.6134 26.8451 42.2934 28.218 42.3994C28.4157 42.4166 28.6049 42.4224 28.7912 42.4224C29.9749 42.4224 30.8347 42.1042 31.2961 41.4909C31.9066 40.6798 33.4199 37.4096 33.609 35.819C33.6406 35.5324 33.6578 35.1741 33.6664 34.7442C33.8781 34.4761 33.9933 34.1444 33.9933 33.8027C33.9933 33.461 33.8781 33.1293 33.6664 32.8612C33.6348 31.1788 33.546 29.4362 33.5231 29.035C33.6066 29.0603 33.6948 29.0662 33.781 29.0522Z" fill="white"/>
<path d="M33.3911 28.957C33.3911 28.957 33.6777 34.1819 33.4857 35.7983C33.2937 37.4148 31.766 40.642 31.1928 41.4044C30.6196 42.1667 29.4732 42.353 28.2437 42.2642C27.0141 42.1753 24.6267 38.6529 24.3401 37.988C24.1813 37.604 23.9562 37.2508 23.6751 36.9448C23.6751 36.9448 22.629 37.0393 21.8667 35.8986C21.1043 34.7579 20.8205 33.6058 21.7721 33.0469" stroke="#263238" stroke-width="0.0969739" stroke-linecap="round" stroke-linejoin="round"/>
<path d="M29.2983 34.0876C29.2983 34.0876 29.9661 32.9412 30.6311 33.6119L31.1068 36.6528L29.6738 37.0339L29.863 38.5529" stroke="#263238" stroke-width="0.0969739" stroke-linecap="round" stroke-linejoin="round"/>
<path d="M27.8711 35.512C28.6594 35.512 29.2984 34.8742 29.2984 34.0875C29.2984 33.3008 28.6594 32.6631 27.8711 32.6631C27.0829 32.6631 26.4438 33.3008 26.4438 34.0875C26.4438 34.8742 27.0829 35.512 27.8711 35.512Z" fill="#6976EB" stroke="#263238" stroke-width="0.0969739" stroke-linecap="round" stroke-linejoin="round"/>
<path d="M33.8668 33.8036C33.8668 33.5202 33.7828 33.2432 33.6253 33.0075C33.4678 32.7718 33.244 32.5882 32.9822 32.4797C32.7203 32.3712 32.4322 32.3428 32.1542 32.3981C31.8762 32.4534 31.6209 32.5899 31.4205 32.7903C31.22 32.9907 31.0836 33.2461 31.0283 33.5241C30.973 33.8021 31.0014 34.0902 31.1098 34.352C31.2183 34.6139 31.402 34.8377 31.6376 34.9952C31.8733 35.1526 32.1503 35.2367 32.4338 35.2367C32.8138 35.2367 33.1783 35.0857 33.4471 34.8169C33.7158 34.5482 33.8668 34.1837 33.8668 33.8036Z" fill="#6976EB" stroke="#263238" stroke-width="0.0969739" stroke-linecap="round" stroke-linejoin="round"/>
<path d="M26.4438 34.0874L23.5892 34.2766" stroke="#263238" stroke-width="0.0969739" stroke-linecap="round" stroke-linejoin="round"/>
<path d="M26.4667 32.1072C26.4667 32.1072 27.2319 31.3448 28.6535 31.7805" stroke="#263238" stroke-width="0.0969739" stroke-linecap="round" stroke-linejoin="round"/>
<path d="M31.276 31.6716C31.276 31.6716 32.709 30.9093 33.1332 31.8894" stroke="#263238" stroke-width="0.0969739" stroke-linecap="round" stroke-linejoin="round"/>
<path d="M24.7299 29.1464C24.7299 29.1464 25.4923 30.9521 25.6814 31.2387C25.8706 31.5253 24.7299 32.8523 24.7299 32.8523V34.1821L23.5835 34.2767L22.4371 33.2334L21.7721 33.0414C21.7721 33.0414 21.8667 30.2871 21.3909 29.3385C20.9152 28.3898 20.3448 27.0456 21.1043 26.203C21.8638 25.3604 23.9704 25.3432 23.9704 25.3432C25.4719 24.0303 27.2198 23.0297 29.1121 22.3997C32.2648 21.3536 36.2486 23.5461 36.7244 25.3432C37.2002 27.1402 34.3542 28.9573 33.781 29.0519C33.2077 29.1464 32.3479 28.0086 31.4881 28.0086H30.1554C29.2038 28.0086 29.1093 27.9112 28.0603 27.9112C27.0113 27.9112 24.7299 29.1464 24.7299 29.1464Z" fill="#263238"/>
<path d="M25.9221 27.5874C25.9221 27.5874 27.5472 26.6875 28.3612 25.1541C29.1751 23.6208 26.4638 24.343 25.7416 25.3347C25.0193 26.3263 26.7361 25.9652 26.7361 25.9652" stroke="white" stroke-width="0.0484869" stroke-linecap="round" stroke-linejoin="round"/>
<path d="M24.7299 29.1465C24.7299 29.1465 23.7554 30.2012 22.4915 30.2929" stroke="white" stroke-width="0.0484869" stroke-linecap="round" stroke-linejoin="round"/>
<path d="M25.1998 30.4736C25.1998 30.4736 23.4801 31.2847 22.5802 31.2847" stroke="white" stroke-width="0.0484869" stroke-linecap="round" stroke-linejoin="round"/>
<path d="M22.5802 32.0044C22.5802 32.0044 23.9358 32.291 24.6581 32.0044" stroke="white" stroke-width="0.0484869" stroke-linecap="round" stroke-linejoin="round"/>
<path d="M27.3666 27.7675C27.3666 27.7675 28.0888 27.6787 30.4361 26.8676C32.7834 26.0565 33.5888 25.1479 32.0612 23.9814" stroke="white" stroke-width="0.0484869" stroke-linecap="round" stroke-linejoin="round"/>
<path d="M74.542 78.7209C74.542 78.7209 70.8018 68.7728 69.8417 67.8155C68.8815 66.8583 64.0694 63.9263 64.0694 63.9263L63.6825 63.2642L63.4475 62.4589C63.4475 62.4589 63.1609 61.2465 62.3354 60.6475L62.2695 60.5071L56.5947 58.0767C56.5947 58.0767 56.6348 58.8276 56.695 59.7332C56.0244 59.9769 54.5369 60.6303 54.0267 61.7939C53.6943 62.5477 53.5051 63.8002 53.4105 64.9781L53.1784 65.1501L53.2643 64.8348C53.2643 64.8348 46.9819 68.3572 46.6982 68.9304C46.3313 69.4119 45.3827 72.4987 45.3827 72.4987C45.3827 72.4987 44.4369 75.4651 43.3965 78.741C41.9291 83.2465 40.5104 87.749 40.4186 88.4684C40.4186 88.5343 40.4186 88.5028 40.4186 88.5028C40.3241 89.7381 45.0416 94.2923 45.0416 94.2923H45.1047L45.6779 94.8655C45.6779 94.8655 45.6779 94.8082 45.6779 94.6276C46.0763 95.4387 46.7268 96.6338 47.2427 96.3816C47.6669 96.1724 47.5293 95.4358 47.1854 94.4757C47.6125 95.1263 48.1026 95.5992 48.4923 95.41C49.1659 95.0776 48.8305 93.9283 48.1541 92.2832C48.0963 92.1428 48.0083 92.0169 47.8964 91.9144C47.7844 91.8118 47.6513 91.7352 47.5064 91.6899C47.7242 91.667 47.9449 91.644 48.1713 91.6154C48.3978 92.6672 48.9051 93.5786 49.4754 93.4582C50.0458 93.3379 50.1317 92.5984 50.0171 91.3402C50.0744 91.3402 50.1518 91.1711 50.2091 91.1625C50.4613 92.0481 50.8483 92.8363 51.3355 92.7331C51.8714 92.6185 52.0176 92.0854 51.9546 91.0135C51.9546 90.6151 51.9259 90.4861 51.9116 90.2339C52.1208 90.3629 53.1468 90.982 53.2643 91.0708C53.6455 91.3574 56.546 90.7383 56.546 90.7383C60.782 89.3684 67.5545 89.3053 71.9282 86.3762C74.8487 84.4072 74.542 78.7209 74.542 78.7209ZM47.8417 86.8577L48.9882 79.3142L49.4439 86.1928L49.3092 87.8895L47.8417 86.8577Z" fill="white"/>
<path d="M46.7155 68.7671L53.5396 64.7547C53.5396 64.7547 53.9666 61.0976 54.8379 60.725C54.8379 60.725 56.0359 59.6789 57.3973 59.8852C58.1769 59.9998 58.753 59.0254 59.1944 57.3287C59.1944 53.9725 59.1485 49.6877 59.1141 47.0108C58.8275 45.6896 58.518 44.6177 58.4148 44.1992L55.1991 42.8493C55.1991 42.8493 54.5112 40.5278 50.9745 40.009C47.4378 39.4903 43.6459 43.2821 43.2132 45.8644C42.7804 48.4467 45.2825 51.201 44.3338 52.6656C43.3851 54.1301 39.4185 56.2797 38.3838 58.776C37.3492 61.2724 37.6071 62.9949 37.6071 62.9949C37.6071 62.9949 40.4531 67.0389 39.6764 68.4175C38.8997 69.7961 34.3312 71.0858 34.4172 75.1327C34.4975 78.8815 38.209 81.5211 42.3218 82.0112L46.7155 68.7671Z" fill="#263238"/>
<path d="M54.1816 43.54C54.1816 43.54 51.7454 40.7485 48.6759 41.6484C45.6063 42.5484 44.4312 45.7956 45.0646 47.4178C45.698 49.04 47.1397 50.3899 46.0563 52.8232C44.9729 55.2565 42.2645 55.6176 40.8974 58.4121C39.5303 61.2065 39.9057 62.1093 39.9057 62.1093" stroke="white" stroke-width="0.0484869" stroke-linecap="round" stroke-linejoin="round"/>
<path d="M52.5565 45.8843C52.5565 45.8843 50.3009 46.1537 50.3009 47.6039C50.3009 49.0541 51.5648 49.7649 51.7339 51.5677C51.903 53.3704 51.3728 54.0927 50.0143 56.3454C48.6558 58.5981 48.5812 59.7704 49.5643 61.3037C50.5474 62.8371 51.1894 65.3592 49.9254 66.2591" stroke="white" stroke-width="0.0484869" stroke-linecap="round" stroke-linejoin="round"/>
<path d="M53.0982 44.0815C53.0982 44.0815 50.3898 42.6485 48.2259 43.9927C46.062 45.3369 48.9482 48.0482 49.3093 50.5703C49.6704 53.0925 47.8763 54.8981 45.4286 57.6008C44.7116 58.4186 44.1792 59.3813 43.8677 60.4234C43.5561 61.4654 43.4726 62.5624 43.623 63.6396" stroke="white" stroke-width="0.0484869" stroke-linecap="round" stroke-linejoin="round"/>
<path d="M43.4395 66.7949C43.4395 66.7949 44.07 68.1448 42.3532 69.9476C40.6365 71.7503 36.9364 72.2032 36.0479 74.9059C35.1594 77.6086 36.9335 79.0531 36.9335 79.0531" stroke="white" stroke-width="0.0484869" stroke-linecap="round" stroke-linejoin="round"/>
<path d="M56.6149 57.9248C56.6149 57.9248 56.804 61.5475 56.9961 62.4962C57.1881 63.4448 57.9533 66.8325 58.2428 69.8247C58.3828 71.3772 58.6707 72.9127 59.1026 74.4104C59.1026 74.4104 61.4213 83.4156 61.5588 72.1032C61.6076 68.1137 61.1776 61.8427 61.1776 61.8427L61.3668 59.9425" fill="white"/>
<mask id="mask4_1283_5236" style="mask-type:luminance" maskUnits="userSpaceOnUse" x="56" y="57" width="6" height="21">
<path d="M56.6149 57.9248C56.6149 57.9248 56.804 61.5475 56.9961 62.4962C57.1881 63.4448 57.9533 66.8325 58.2428 69.8247C58.3828 71.3772 58.6707 72.9127 59.1026 74.4104C59.1026 74.4104 61.4213 83.4156 61.5588 72.1032C61.6076 68.1137 61.1776 61.8427 61.1776 61.8427L61.3668 59.9425" fill="white"/>
</mask>
<g mask="url(#mask4_1283_5236)">
<g opacity="0.3" style="mix-blend-mode:multiply">
<path d="M60.4927 60.2404L56.9961 62.496L56.7726 58.687C56.7726 58.687 59.1084 60.0685 60.4927 60.2404Z" fill="#6976EB"/>
</g>
<g opacity="0.3" style="mix-blend-mode:multiply">
<path d="M61.1834 61.8311C61.1834 61.8311 61.0688 68.2969 60.7535 71.0311C60.5795 72.7687 60.7589 74.5236 61.2809 76.19C61.2809 76.19 61.7194 66.1875 61.1834 61.8311Z" fill="#6976EB"/>
</g>
</g>
<path d="M56.6149 57.9248C56.6149 57.9248 56.804 61.5475 56.9961 62.4962C57.1881 63.4448 57.9533 66.8325 58.2428 69.8247C58.3828 71.3772 58.6707 72.9127 59.1026 74.4104C59.1026 74.4104 61.4213 83.4156 61.5588 72.1032C61.6076 68.1137 61.1776 61.8427 61.1776 61.8427L61.3668 59.9425" stroke="#263238" stroke-width="0.0969739" stroke-linecap="round" stroke-linejoin="round"/>
<path d="M54.0928 73.103L53.488 74.3985L57.4661 78.282L54.0928 73.103Z" fill="#6976EB"/>
<path opacity="0.7" d="M54.0928 73.103L53.488 74.3985L57.4661 78.282L54.0928 73.103Z" fill="white"/>
<path d="M49.4583 75.9664C49.4583 75.9664 50.7881 72.894 51.2066 73.5933C51.625 74.2926 48.9682 77.2934 50.0171 77.7118C51.0661 78.1303 52.5966 76.5941 52.1151 77.8494C51.6336 79.1047 50.7881 80.5722 50.7881 81.2027C50.7881 81.8332 51.0747 88.044 51.0747 88.044L51.1464 88.4624L50.3066 89.0356C50.3066 89.0356 49.3981 88.1271 49.3981 87.359C49.3981 86.5909 49.2576 83.5185 49.2576 82.822C49.2576 82.1256 48.9309 79.6693 48.9309 79.6693L49.4583 75.9664Z" fill="#6976EB"/>
<path opacity="0.7" d="M49.4583 75.9664C49.4583 75.9664 50.7882 72.894 51.2066 73.5933C51.625 74.2926 48.9682 77.2934 50.0172 77.7118C51.0662 78.1303 52.5966 76.5941 52.1151 77.8494C51.6336 79.1047 50.7882 80.5722 50.7882 81.2027C50.7882 81.8332 51.0748 88.044 51.0748 88.044L51.1464 88.4624L50.3067 89.0356C50.3067 89.0356 49.3981 88.1271 49.3981 87.359C49.3981 86.5909 49.2577 83.5185 49.2577 82.822C49.2577 82.1256 48.9711 79.4974 48.9711 79.4974L49.4583 75.9664Z" fill="white"/>
<path d="M56.6606 59.71C56.6606 59.71 54.7117 60.1198 54.0439 61.6417C53.3761 63.1636 53.2844 66.6774 53.379 67.626C53.4319 68.3894 53.4319 69.1555 53.379 69.9189L56.0444 69.0591" fill="white"/>
<mask id="mask5_1283_5236" style="mask-type:luminance" maskUnits="userSpaceOnUse" x="53" y="59" width="4" height="11">
<path d="M56.6609 59.71C56.6609 59.71 54.7119 60.1198 54.0442 61.6417C53.3764 63.1636 53.2847 66.6774 53.3792 67.626C53.4322 68.3894 53.4322 69.1555 53.3792 69.9189L56.0447 69.0591" fill="white"/>
</mask>
<g mask="url(#mask5_1283_5236)">
<g opacity="0.3" style="mix-blend-mode:multiply">
<path d="M57.0275 62.1232C56.2246 62.142 55.4522 62.4342 54.8378 62.9515C53.7115 63.8371 53.594 65.4335 53.594 65.4335C53.594 65.4335 53.2386 63.5419 53.9494 61.8882C54.6601 60.2345 56.6607 59.71 56.6607 59.71L57.0275 62.1232Z" fill="#6976EB"/>
</g>
</g>
<path d="M56.6606 59.71C56.6606 59.71 54.7117 60.1198 54.0439 61.6417C53.3761 63.1636 53.2844 66.6774 53.379 67.626C53.4319 68.3894 53.4319 69.1555 53.379 69.9189L56.0444 69.0591" stroke="#263238" stroke-width="0.0969739" stroke-linecap="round" stroke-linejoin="round"/>
<path d="M56.7094 69.2427L53.7603 72.5673C53.7603 72.5673 55.9499 75.9865 56.996 77.1272" stroke="#263238" stroke-width="0.0969739" stroke-linecap="round" stroke-linejoin="round"/>
<path d="M64.2299 76.6516L65.7518 70.8564L63.0864 68.8502L65.1815 68.1852L63.4618 62.2955C63.4618 62.2955 63.1437 60.8166 62.0288 60.3408" stroke="#263238" stroke-width="0.0969739" stroke-linecap="round" stroke-linejoin="round"/>
<path d="M58.1425 66.3906C58.1425 66.3906 59.094 67.537 60.1487 67.3422C61.2034 67.1473 61.1948 66.5826 61.1948 66.5826" stroke="#263238" stroke-width="0.0969739" stroke-linecap="round" stroke-linejoin="round"/>
<mask id="mask6_1283_5236" style="mask-type:luminance" maskUnits="userSpaceOnUse" x="40" y="64" width="14" height="31">
<path d="M53.2845 64.6831C53.2845 64.6831 47.0021 68.1969 46.7155 68.7672C46.4289 69.3376 40.5305 87.1101 40.436 88.3396C40.3414 89.5692 45.0991 94.2294 45.0991 94.2294" fill="white"/>
</mask>
<g mask="url(#mask6_1283_5236)">
<path d="M48.8306 67.5894C48.8306 67.5894 47.2915 69.266 47.3603 69.6844C47.4291 70.1029 49.249 70.871 48.8306 71.3582C48.4121 71.8455 47.3603 70.6618 47.1511 70.871C46.9418 71.0802 43.0956 84.2039 43.4452 84.4074C43.7949 84.6109 44.6347 83.8485 44.8439 84.3386C45.0531 84.8287 41.3473 86.2216 42.1154 86.6315C42.8835 87.0413 44.7722 86.1414 44.4082 86.2818C44.0442 86.4223 43.0096 87.7464 43.2905 88.3053C43.5713 88.8642 46.5664 91.6958 46.5664 91.6958C46.39 91.7685 46.2487 91.9069 46.1722 92.0817C46.0958 92.2565 46.0902 92.4542 46.1565 92.633C46.2362 92.9933 46.4389 93.3145 46.7297 93.5416C46.7297 93.5416 45.9272 92.8795 45.804 93.596C45.7339 93.9697 45.6927 94.3482 45.6808 94.7281L43.7175 92.7849C42.1182 91.157 40.8171 89.6323 40.433 88.3225C40.433 88.3225 40.3642 88.5145 40.7855 86.9783C41.2068 85.4421 45.3999 72.3184 45.3999 72.3184C45.3999 72.3184 46.3486 69.2287 46.7125 68.7501C47.0765 68.2715 48.8306 67.5894 48.8306 67.5894Z" fill="#6976EB"/>
<path opacity="0.7" d="M48.8305 67.5894C48.8305 67.5894 47.2914 69.266 47.3602 69.6844C47.429 70.1029 49.2489 70.871 48.8305 71.3582C48.4121 71.8455 47.3602 70.6618 47.151 70.871C46.9418 71.0802 43.0955 84.2039 43.4452 84.4074C43.7948 84.6109 44.6346 83.8485 44.8438 84.3386C45.053 84.8287 41.3472 86.2216 42.1153 86.6315C42.8834 87.0413 44.7722 86.1414 44.4082 86.2818C44.0442 86.4223 43.0095 87.7464 43.2904 88.3053C43.5713 88.8642 46.5663 91.6958 46.5663 91.6958C46.3899 91.7685 46.2486 91.9069 46.1722 92.0817C46.0957 92.2565 46.0901 92.4542 46.1565 92.633C46.2362 92.9933 46.4388 93.3145 46.7297 93.5416C46.7297 93.5416 45.9272 92.8795 45.8039 93.596C45.6807 94.3125 45.6176 94.7826 45.6176 94.7826L43.7174 92.7763C41.7341 90.7959 40.5075 89.2339 40.4329 88.3139C40.4329 88.3139 40.2008 88.7495 40.7855 86.9697C41.2813 85.4564 45.3998 72.3098 45.3998 72.3098C45.3998 72.3098 46.3485 69.2201 46.7125 68.7415C47.0765 68.2629 48.8305 67.5894 48.8305 67.5894Z" fill="white"/>
<path d="M52.2755 65.6803V71.0312L55.6489 70.1686L56.7724 68.8731L53.313 69.5638L53.5394 64.7402L52.2755 65.6803Z" fill="#6976EB"/>
<path opacity="0.7" d="M52.2755 65.6803V71.0312L55.6489 70.1686L56.7724 68.8731L53.313 69.5638L53.5394 64.7402L52.2755 65.6803Z" fill="white"/>
</g>
<path d="M53.2845 64.6831C53.2845 64.6831 47.0021 68.1969 46.7155 68.7672C46.4289 69.3376 40.5305 87.1101 40.436 88.3396C40.3414 89.5692 45.0991 94.2294 45.0991 94.2294" stroke="#263238" stroke-width="0.0969739" stroke-linecap="round" stroke-linejoin="round"/>
<path d="M49.7621 73.6133L47.859 86.7227" stroke="#263238" stroke-width="0.0969739" stroke-linecap="round" stroke-linejoin="round"/>
<path d="M49.9512 72.8513L50.2378 71.5215" stroke="#263238" stroke-width="0.0969739" stroke-linecap="round" stroke-linejoin="round"/>
<path d="M42.4336 87.4857C42.4336 87.4857 43.6717 85.766 45.4802 85.8692C47.2887 85.9724 49.9513 88.5289 49.9513 88.5289" stroke="#263238" stroke-width="0.0969739" stroke-linecap="round" stroke-linejoin="round"/>
<path d="M43.0039 85.4877C43.4031 85.129 43.9115 84.9152 44.4471 84.8809C44.9827 84.8465 45.5143 84.9937 45.956 85.2986" stroke="#263238" stroke-width="0.0969739" stroke-linecap="round" stroke-linejoin="round"/>
<path d="M51.8371 89.4454C51.8164 89.2876 51.7588 89.1368 51.669 89.0053C51.5792 88.8738 51.4597 88.7653 51.3201 88.6886C51.1806 88.6118 51.025 88.569 50.8659 88.5636C50.7067 88.5581 50.5485 88.5902 50.4041 88.6573C50.2869 88.716 50.1869 88.8043 50.1141 88.9133C50.0412 89.0223 49.998 89.1484 49.9885 89.2792C49.8825 90.3253 50.5245 92.8962 51.3843 92.7185C52.0979 92.558 52.075 91.2052 51.8371 89.4454Z" fill="white" stroke="#263238" stroke-width="0.0969739" stroke-linecap="round" stroke-linejoin="round"/>
<path d="M49.9226 90.2049C49.9014 90.0473 49.8436 89.8969 49.7536 89.7657C49.6636 89.6346 49.544 89.5265 49.4046 89.45C49.2651 89.3736 49.1096 89.331 48.9507 89.3258C48.7917 89.3205 48.6338 89.3526 48.4896 89.4196C48.3722 89.4775 48.2721 89.5651 48.1991 89.6737C48.1262 89.7823 48.0831 89.9082 48.074 90.0387C47.9679 91.0848 48.6099 93.6557 49.4697 93.478C50.1949 93.3175 50.1719 91.9676 49.9226 90.2049Z" fill="white" stroke="#263238" stroke-width="0.0969739" stroke-linecap="round" stroke-linejoin="round"/>
<path d="M48.1744 92.1199C48.115 91.971 48.0212 91.8382 47.9008 91.7324C47.7803 91.6266 47.6365 91.5508 47.4812 91.5111C47.3258 91.4715 47.1633 91.4691 47.0068 91.5041C46.8504 91.5392 46.7044 91.6107 46.5809 91.7129C46.4811 91.7983 46.4055 91.9083 46.3618 92.0321C46.318 92.1558 46.3076 92.2889 46.3315 92.418C46.4863 93.4555 47.7474 95.8028 48.5298 95.4044C49.2033 95.0605 48.8307 93.6733 48.1744 92.1199Z" fill="white" stroke="#263238" stroke-width="0.0969739" stroke-linecap="round" stroke-linejoin="round"/>
<path d="M46.9419 93.954C46.898 93.8424 46.8283 93.7428 46.7384 93.6635C46.6485 93.5842 46.5411 93.5273 46.4249 93.4977C46.3088 93.468 46.1872 93.4663 46.0703 93.4929C45.9534 93.5194 45.8445 93.5733 45.7525 93.6502C45.6785 93.7146 45.6222 93.7968 45.5891 93.8892C45.556 93.9815 45.5471 94.0808 45.5633 94.1775C45.6808 94.9542 46.6209 96.6968 47.2084 96.4073C47.7129 96.158 47.4463 95.1864 46.9419 93.954Z" fill="white" stroke="#263238" stroke-width="0.0969739" stroke-linecap="round" stroke-linejoin="round"/>
<path d="M51.9834 90.1392C51.9834 90.1392 52.7286 90.9445 53.2817 91.1165C53.7374 91.2569 56.1077 90.8299 56.1077 90.8299" stroke="#263238" stroke-width="0.0969739" stroke-linecap="round" stroke-linejoin="round"/>
<path d="M55.3768 92.6152C55.3768 92.6152 53.8549 92.9936 52.7973 93.1884C51.7397 93.3833 50.6076 93.4751 50.6076 93.4751C50.6076 93.4751 49.8452 94.4266 49.2749 94.4266" stroke="#263238" stroke-width="0.0969739" stroke-linecap="round" stroke-linejoin="round"/>
<path d="M64.0895 63.7715C64.0895 63.7715 68.9016 66.7063 69.8617 67.6636C70.8219 68.6209 74.1924 77.5974 74.1924 77.5974" stroke="#263238" stroke-width="0.0969739" stroke-linecap="round" stroke-linejoin="round"/>
<path d="M68.6637 70.1768L69.7413 77.9581" stroke="#263238" stroke-width="0.0969739" stroke-linecap="round" stroke-linejoin="round"/>
<path d="M69.7413 77.0216L69.0707 71.2407L72.0342 77.7696L69.876 77.8671L69.7413 77.0216Z" fill="#6976EB"/>
<path opacity="0.7" d="M69.7413 77.0216L69.0707 71.2407L72.0342 77.7696L69.876 77.8671L69.7413 77.0216Z" fill="white"/>
<path d="M51.4158 74.1724L49.5529 77.2305L51.1321 75.9808" stroke="#263238" stroke-width="0.0969739" stroke-linecap="round" stroke-linejoin="round"/>
<path d="M49.0342 79.6836C49.0342 79.6836 49.4211 85.3641 49.4211 86.138C49.4211 86.9118 49.3122 87.9321 49.3122 87.9321" stroke="#263238" stroke-width="0.0969739" stroke-linecap="round" stroke-linejoin="round"/>
<path d="M55.4713 42.5455C55.4713 42.5455 52.7113 44.159 52.5221 46.535C52.4309 48.102 52.5916 49.6734 52.9979 51.1895C52.9979 51.1895 52.1381 50.43 52.0463 52.141C51.9546 53.8521 53.3791 55.1791 53.9494 55.1791H54.5226C54.5226 55.1791 55.7923 57.7872 57.317 59.0225C58.8418 60.2577 60.3293 60.3122 61.3754 59.931C62.4215 59.5498 64.422 57.8416 64.614 55.5603C64.8061 53.2789 64.614 49.4785 64.422 47.1054C64.23 44.7323 63.7571 43.0184 61.1862 42.1643C58.6154 41.3102 56.804 41.8777 55.4713 42.5455Z" fill="white"/>
<mask id="mask7_1283_5236" style="mask-type:luminance" maskUnits="userSpaceOnUse" x="52" y="41" width="13" height="20">
<path d="M55.4712 42.5455C55.4712 42.5455 52.7111 44.159 52.522 46.535C52.4308 48.102 52.5915 49.6734 52.9978 51.1895C52.9978 51.1895 52.1379 50.43 52.0462 52.141C51.9545 53.8521 53.3789 55.1791 53.9493 55.1791H54.5225C54.5225 55.1791 55.7922 57.7872 57.3169 59.0225C58.8417 60.2577 60.3292 60.3122 61.3753 59.931C62.4214 59.5498 64.4219 57.8416 64.6139 55.5603C64.8059 53.2789 64.6139 49.4785 64.4219 47.1054C64.2299 44.7323 63.757 43.0184 61.1861 42.1643C58.6152 41.3102 56.8039 41.8777 55.4712 42.5455Z" fill="white"/>
</mask>
<g mask="url(#mask7_1283_5236)">
<g opacity="0.3" style="mix-blend-mode:multiply">
<path d="M52.9978 51.1895C52.9978 51.1895 52.1379 50.43 52.0462 52.141C51.9545 53.852 53.3789 55.179 53.9493 55.179H54.5225C54.5225 55.179 55.7922 57.7843 57.3169 59.0224L57.9704 59.4724C58.193 59.6071 58.4258 59.724 58.6668 59.8221C58.1538 59.1915 57.0389 57.7384 56.5144 56.4315C55.8208 54.7119 55.6546 51.0806 55.8208 48.7504C55.9871 46.4203 57.2051 45.4688 57.2051 45.4688L55.4855 45.3828C55.2304 45.3828 53.8977 47.3661 52.5449 48.504L52.9978 51.1895Z" fill="#6976EB"/>
</g>
</g>
<path d="M55.4713 42.5455C55.4713 42.5455 52.7113 44.159 52.5221 46.535C52.4309 48.102 52.5916 49.6734 52.9979 51.1895C52.9979 51.1895 52.1381 50.43 52.0463 52.141C51.9546 53.8521 53.3791 55.1791 53.9494 55.1791H54.5226C54.5226 55.1791 55.7923 57.7872 57.317 59.0225C58.8418 60.2577 60.3293 60.3122 61.3754 59.931C62.4215 59.5498 64.422 57.8416 64.614 55.5603C64.8061 53.2789 64.614 49.4785 64.422 47.1054C64.23 44.7323 63.7571 43.0184 61.1862 42.1643C58.6154 41.3102 56.804 41.8777 55.4713 42.5455Z" stroke="#263238" stroke-width="0.0969739" stroke-linecap="round" stroke-linejoin="round"/>
<path d="M59.8793 51.267C59.8793 51.267 60.676 49.9056 61.4699 50.6938L62.0432 53.3965L60.8967 53.6315L61.0056 55.3196" stroke="#263238" stroke-width="0.0969739" stroke-linecap="round" stroke-linejoin="round"/>
<path d="M58.1768 52.9665C59.117 52.9665 59.8793 52.2056 59.8793 51.267C59.8793 50.3283 59.117 49.5674 58.1768 49.5674C57.2366 49.5674 56.4744 50.3283 56.4744 51.267C56.4744 52.2056 57.2366 52.9665 58.1768 52.9665Z" fill="#6976EB" stroke="#263238" stroke-width="0.0969739" stroke-linecap="round" stroke-linejoin="round"/>
<path d="M65.3335 50.9254C65.334 50.5886 65.2348 50.2592 65.0484 49.9787C64.862 49.6982 64.5967 49.4792 64.286 49.3493C63.9753 49.2194 63.6331 49.1844 63.3025 49.2487C62.9719 49.313 62.6677 49.4738 62.4284 49.7107C62.1891 49.9477 62.0252 50.2502 61.9576 50.5801C61.89 50.91 61.9215 51.2526 62.0483 51.5646C62.1751 51.8766 62.3914 52.1441 62.67 52.3333C62.9487 52.5225 63.2771 52.625 63.6138 52.6278C63.8388 52.6301 64.0621 52.5878 64.2706 52.5032C64.4791 52.4187 64.6689 52.2936 64.8288 52.1353C64.9887 51.977 65.1156 51.7886 65.2023 51.5809C65.2889 51.3732 65.3335 51.1504 65.3335 50.9254Z" fill="#6976EB" stroke="#263238" stroke-width="0.0969739" stroke-linecap="round" stroke-linejoin="round"/>
<path d="M56.4744 51.2666L53.0667 51.493" stroke="#263238" stroke-width="0.0969739" stroke-linecap="round" stroke-linejoin="round"/>
<path d="M56.7897 48.994C56.9884 48.7497 57.2503 48.5646 57.547 48.459C57.8437 48.3534 58.1637 48.3312 58.4721 48.395" stroke="#263238" stroke-width="0.0969739" stroke-linecap="round" stroke-linejoin="round"/>
<path d="M62.0834 48.2747C62.3644 48.1203 62.6891 48.0646 63.0056 48.1166C63.322 48.1686 63.6119 48.3251 63.8288 48.5613" stroke="#263238" stroke-width="0.0969739" stroke-linecap="round" stroke-linejoin="round"/>
<path d="M64.4191 47.1054C64.23 44.7294 63.7542 43.0184 61.1834 42.1643C58.6125 41.3102 56.804 41.8777 55.4713 42.5455C55.4713 42.5455 52.7113 44.159 52.5221 46.535C52.4309 48.102 52.5916 49.6734 52.9979 51.1895C52.9979 51.1895 53.7602 51.949 53.9494 50.9029C54.1386 49.8568 53.5682 48.1457 56.2423 46.151C58.9163 44.1562 62.7138 45.1077 64.0466 47.0108C64.2023 47.1355 64.3368 47.2845 64.4449 47.4522C64.4478 47.4178 64.422 47.1484 64.4191 47.1054Z" fill="#263238"/>
<path d="M22.8268 57.6495C22.8268 57.6495 20.5339 57.2712 18.8143 58.4119C18.3247 58.7376 17.9389 59.1971 17.7027 59.7356C17.4664 60.2741 17.3897 60.8691 17.4816 61.4499" stroke="#263238" stroke-width="0.0969739" stroke-linecap="round" stroke-linejoin="round"/>
<path d="M17.877 57.8418C17.877 57.8418 16.7306 59.1717 16.7306 60.3123" stroke="#263238" stroke-width="0.0969739" stroke-linecap="round" stroke-linejoin="round"/>
<path d="M10.7378 52.4246C10.7378 52.4246 11.8842 59.3604 12.9275 61.4498C13.9707 63.5392 16.94 65.5368 19.2099 66.4855C21.4798 67.4341 32.153 68.956 32.5342 68.8615C32.9154 68.7669 30.7257 66.7721 31.2015 64.3015C31.4394 63.0749 33.1046 61.831 33.1046 61.831C33.1046 61.831 28.4415 59.8247 26.633 59.0767C24.8245 58.3287 22.8269 57.6437 22.8269 57.6437C22.8269 57.6437 20.2474 55.2706 19.0207 54.2245C17.8928 53.3369 16.7169 52.5121 15.4983 51.7539" stroke="#263238" stroke-width="0.0969739" stroke-linecap="round" stroke-linejoin="round"/>
<path d="M42.21 65.2931L43.4539 66.8407C43.7053 67.0715 43.9735 67.2832 44.2564 67.4741C44.629 67.6748 44.95 68.2824 44.4369 68.4285C44.2031 68.4955 43.9569 68.5073 43.7177 68.463C43.4785 68.4188 43.2528 68.3196 43.0584 68.1734L41.8489 67.2878L40.8372 66.3736L41.5709 65.0552L42.21 65.2931Z" fill="white" stroke="#263238" stroke-width="0.0969739" stroke-linecap="round" stroke-linejoin="round"/>
<path d="M33.1045 61.8311C33.1045 61.8311 36.0566 62.496 37.0081 62.6909C37.9597 62.8858 42.8148 63.737 43.4797 64.0207C44.1446 64.3045 46.2397 64.4019 46.1451 65.256C46.0506 66.1101 45.1936 65.9209 44.5287 65.8292C43.8637 65.7375 41.7658 65.3563 41.7658 65.3563C41.7658 65.3563 42.4336 66.5916 42.2444 66.8753C42.0553 67.1591 37.7705 68.6809 36.9135 68.6809C36.0566 68.6809 35.4805 67.1591 35.1051 66.6747L33.9586 65.2417L31.6658 64.1984" fill="white"/>
<path d="M33.1045 61.8311C33.1045 61.8311 36.0566 62.496 37.0081 62.6909C37.9597 62.8858 42.8148 63.737 43.4797 64.0207C44.1446 64.3045 46.2397 64.4019 46.1451 65.256C46.0506 66.1101 45.1936 65.9209 44.5287 65.8292C43.8637 65.7375 41.7658 65.3563 41.7658 65.3563C41.7658 65.3563 42.4336 66.5916 42.2444 66.8753C42.0553 67.1591 37.7705 68.6809 36.9135 68.6809C36.0566 68.6809 35.4805 67.1591 35.1051 66.6747L33.9586 65.2417L31.6658 64.1984" stroke="#263238" stroke-width="0.0969739" stroke-linecap="round" stroke-linejoin="round"/>
<path d="M41.7658 65.3475L41.1008 64.396" stroke="#263238" stroke-width="0.0969739" stroke-linecap="round" stroke-linejoin="round"/>
<path d="M32.5342 68.8612C33.032 68.408 33.4199 67.8471 33.6682 67.2213C33.9165 66.5955 34.0188 65.9213 33.9672 65.25" stroke="#263238" stroke-width="0.0969739" stroke-linecap="round" stroke-linejoin="round"/>
<path d="M37.5785 66.4858L38.3409 68.2915" stroke="#263238" stroke-width="0.0969739" stroke-linecap="round" stroke-linejoin="round"/>
<path d="M39.4814 65.7261L40.2438 67.7209" stroke="#263238" stroke-width="0.0969739" stroke-linecap="round" stroke-linejoin="round"/>
<path d="M57.7584 79.5976V101.924L87.5483 100.216V78.0786L57.7584 79.5976Z" fill="#263238" stroke="#263238" stroke-width="0.0969739" stroke-linecap="round" stroke-linejoin="round"/>
<path d="M87.5484 78.0791L86.0237 77.2222L56.5204 78.6495V100.406L57.7585 101.925V79.5981L87.5484 78.0791Z" fill="white" stroke="#263238" stroke-width="0.0969739" stroke-linecap="round" stroke-linejoin="round"/>
<path d="M56.5204 78.6489L57.7557 79.5976" stroke="#263238" stroke-width="0.0969739" stroke-linecap="round" stroke-linejoin="round"/>
<path d="M69.6554 92.6156V107.723L77.8409 107.152V91.9507L69.6554 92.6156Z" fill="#263238" stroke="#263238" stroke-width="0.0969739" stroke-linecap="round" stroke-linejoin="round"/>
<path d="M69.4004 101.168V92.6156L77.841 91.9507L77.8639 100.638" stroke="white" stroke-width="0.0969739" stroke-linecap="round" stroke-linejoin="round"/>
<path d="M69.6555 107.722L65.3707 103.922L69.6555 103.73" fill="white"/>
<path d="M69.6555 107.722L65.3707 103.922L69.6555 103.73" stroke="#263238" stroke-width="0.0969739" stroke-linecap="round" stroke-linejoin="round"/>
<path opacity="0.7" d="M17.7452 93.7621L44.8152 96.4734C44.8152 96.4734 43.7777 95.6394 44.1818 95.5591C44.9499 95.4101 46.0878 95.3069 46.0878 95.3069L43.7003 92.7905L17.7452 93.7621Z" fill="#6976EB"/>
<path opacity="0.7" d="M17.7452 93.7621L44.8152 96.4734C44.8152 96.4734 43.7777 95.6394 44.1818 95.5591C44.9499 95.4101 46.0878 95.3069 46.0878 95.3069L43.7003 92.7905L17.7452 93.7621Z" fill="white"/>
<path d="M43.7204 92.8018L1.47461 94.3064" stroke="#263238" stroke-width="0.0969739" stroke-linecap="round" stroke-linejoin="round"/>
<path d="M87.3448 91.8936L115.822 109.468" stroke="#263238" stroke-width="0.0969739" stroke-linecap="round" stroke-linejoin="round"/>
<path d="M35.5807 96.3184L20.6743 98.1383L30.2785 108.224L46.3457 106.238L35.5807 96.3184Z" fill="#6976EB"/>
<path opacity="0.7" d="M35.5807 96.3184L20.6743 98.1383L30.2785 108.224L46.3457 106.238L35.5807 96.3184Z" fill="white"/>
<path d="M20.3419 100.288L33.5917 98.6343L43.1988 108.387L27.9599 110.537L20.3419 100.288Z" fill="white"/>
<path d="M28.4156 109.118C28.3928 109.118 28.3709 109.109 28.3548 109.093C28.3386 109.077 28.3296 109.055 28.3296 109.032C28.3296 109.01 28.3386 108.988 28.3548 108.972C28.3709 108.956 28.3928 108.946 28.4156 108.946L40.6021 107.379C40.6247 107.377 40.6471 107.384 40.6651 107.397C40.6831 107.411 40.6954 107.431 40.6995 107.453C40.7011 107.465 40.7004 107.476 40.6973 107.488C40.6942 107.499 40.6889 107.509 40.6817 107.519C40.6745 107.528 40.6655 107.535 40.6552 107.541C40.645 107.546 40.6337 107.55 40.6221 107.551L28.4385 109.118H28.4156Z" fill="#6976EB"/>
<path d="M27.7364 108.304C27.7136 108.304 27.6917 108.295 27.6756 108.279C27.6594 108.263 27.6504 108.241 27.6504 108.218C27.6504 108.195 27.6594 108.173 27.6756 108.157C27.6917 108.141 27.7136 108.132 27.7364 108.132L39.9229 106.564C39.9457 106.561 39.9688 106.567 39.987 106.581C40.0053 106.595 40.0173 106.616 40.0203 106.639C40.0234 106.662 40.0172 106.685 40.0033 106.703C39.9893 106.721 39.9686 106.733 39.9458 106.736L27.7622 108.304H27.7364Z" fill="#6976EB"/>
<path d="M27.06 107.49C27.0386 107.49 27.018 107.482 27.0021 107.468C26.9862 107.454 26.9762 107.434 26.974 107.413C26.9716 107.39 26.9779 107.367 26.9918 107.349C27.0057 107.331 27.026 107.319 27.0486 107.315L39.2265 105.748C39.2493 105.747 39.2718 105.754 39.2897 105.768C39.3076 105.782 39.3198 105.803 39.3239 105.825C39.3251 105.836 39.324 105.848 39.3208 105.859C39.3175 105.87 39.3121 105.88 39.305 105.888C39.2978 105.897 39.2889 105.905 39.2789 105.91C39.2688 105.915 39.2578 105.919 39.2465 105.92L27.0629 107.49H27.06Z" fill="#6976EB"/>
<path d="M26.3807 106.674C26.3579 106.674 26.336 106.665 26.3199 106.649C26.3037 106.633 26.2947 106.611 26.2947 106.588C26.2947 106.565 26.3037 106.543 26.3199 106.527C26.336 106.511 26.3579 106.502 26.3807 106.502L38.5672 104.934C38.5899 104.932 38.6127 104.938 38.6308 104.952C38.649 104.966 38.6611 104.986 38.6646 105.009C38.6662 105.02 38.6656 105.031 38.6627 105.043C38.6598 105.054 38.6547 105.064 38.6478 105.073C38.6409 105.082 38.6322 105.09 38.6223 105.095C38.6124 105.101 38.6014 105.105 38.5901 105.106L26.4036 106.674H26.3807Z" fill="#6976EB"/>
<path d="M25.7043 105.86C25.6833 105.86 25.663 105.853 25.6472 105.839C25.6314 105.825 25.6211 105.806 25.6183 105.785C25.6167 105.774 25.6173 105.763 25.6202 105.751C25.6231 105.74 25.6282 105.73 25.6351 105.721C25.6421 105.712 25.6507 105.704 25.6606 105.699C25.6705 105.693 25.6815 105.689 25.6928 105.688L37.8793 104.12C37.902 104.118 37.9248 104.124 37.943 104.138C37.9611 104.152 37.9732 104.172 37.9768 104.195C37.9784 104.206 37.9776 104.218 37.9745 104.229C37.9715 104.24 37.9662 104.251 37.9589 104.26C37.9517 104.269 37.9427 104.277 37.9325 104.282C37.9222 104.288 37.911 104.291 37.8994 104.292L25.7157 105.86H25.7043Z" fill="#6976EB"/>
<path d="M25.025 105.042C25.0036 105.042 24.9829 105.035 24.967 105.02C24.9511 105.006 24.9412 104.986 24.939 104.965C24.9372 104.942 24.9438 104.92 24.9576 104.902C24.9713 104.884 24.9913 104.872 25.0135 104.868L37.2 103.3C37.2232 103.297 37.2464 103.304 37.2646 103.319C37.2828 103.333 37.2946 103.354 37.2975 103.377C37.2999 103.4 37.2935 103.422 37.2796 103.44C37.2656 103.457 37.2453 103.469 37.223 103.472L25.0365 105.042H25.025Z" fill="#6976EB"/>
<path d="M24.3487 104.229C24.3277 104.229 24.3074 104.221 24.2916 104.208C24.2758 104.194 24.2655 104.175 24.2627 104.154C24.2611 104.143 24.2617 104.131 24.2646 104.12C24.2675 104.109 24.2726 104.099 24.2795 104.09C24.2865 104.081 24.2951 104.073 24.305 104.068C24.3149 104.062 24.3259 104.058 24.3372 104.057L36.5237 102.489C36.5463 102.487 36.5688 102.494 36.5867 102.508C36.6047 102.521 36.617 102.541 36.6212 102.564C36.6228 102.575 36.622 102.587 36.619 102.598C36.6159 102.609 36.6106 102.62 36.6033 102.629C36.5961 102.638 36.5871 102.646 36.5769 102.651C36.5666 102.657 36.5554 102.66 36.5438 102.661L24.3601 104.229H24.3487Z" fill="#6976EB"/>
<path d="M23.6694 103.415C23.6466 103.415 23.6247 103.406 23.6086 103.39C23.5924 103.373 23.5834 103.352 23.5834 103.329C23.5834 103.306 23.5924 103.284 23.6086 103.268C23.6247 103.252 23.6466 103.243 23.6694 103.243L35.8559 101.675C35.8672 101.674 35.8786 101.674 35.8896 101.677C35.9007 101.68 35.911 101.685 35.92 101.692C35.9291 101.699 35.9367 101.708 35.9424 101.718C35.9481 101.727 35.9518 101.738 35.9533 101.75C35.9548 101.761 35.9541 101.772 35.9512 101.783C35.9482 101.794 35.9432 101.805 35.9362 101.814C35.9293 101.823 35.9207 101.83 35.9108 101.836C35.901 101.842 35.8901 101.846 35.8788 101.847L23.6923 103.415H23.6694Z" fill="#6976EB"/>
<path d="M22.993 102.601C22.9716 102.601 22.951 102.593 22.9351 102.579C22.9192 102.564 22.9092 102.545 22.907 102.523C22.9045 102.501 22.9109 102.478 22.9248 102.46C22.9386 102.442 22.959 102.429 22.9815 102.426L35.1681 100.858C35.191 100.856 35.2138 100.863 35.2319 100.878C35.25 100.892 35.262 100.913 35.2655 100.936C35.2667 100.947 35.2656 100.958 35.2624 100.969C35.2591 100.98 35.2537 100.99 35.2465 100.999C35.2393 101.008 35.2305 101.015 35.2204 101.02C35.2104 101.026 35.1994 101.029 35.1881 101.03L23.0045 102.601H22.993Z" fill="#6976EB"/>
<path d="M22.3166 101.784C22.2938 101.784 22.2719 101.775 22.2558 101.759C22.2396 101.743 22.2306 101.721 22.2306 101.698C22.2306 101.675 22.2396 101.654 22.2558 101.637C22.2719 101.621 22.2938 101.612 22.3166 101.612L34.5031 100.044C34.5258 100.042 34.5486 100.048 34.5667 100.062C34.5849 100.076 34.597 100.096 34.6005 100.119C34.6021 100.13 34.6015 100.142 34.5986 100.153C34.5957 100.164 34.5906 100.174 34.5837 100.183C34.5768 100.192 34.5681 100.2 34.5582 100.206C34.5483 100.211 34.5373 100.215 34.526 100.216L22.3166 101.784Z" fill="#6976EB"/>
<g opacity="0.7">
<path d="M28.4156 109.118C28.3928 109.118 28.3709 109.109 28.3548 109.093C28.3386 109.077 28.3296 109.055 28.3296 109.032C28.3296 109.01 28.3386 108.988 28.3548 108.972C28.3709 108.956 28.3928 108.946 28.4156 108.946L40.6021 107.379C40.6247 107.377 40.6471 107.384 40.6651 107.397C40.6831 107.411 40.6954 107.431 40.6995 107.453C40.7011 107.465 40.7004 107.476 40.6973 107.488C40.6942 107.499 40.6889 107.509 40.6817 107.519C40.6745 107.528 40.6655 107.535 40.6552 107.541C40.645 107.546 40.6337 107.55 40.6221 107.551L28.4385 109.118H28.4156Z" fill="white"/>
<path d="M27.7364 108.304C27.7136 108.304 27.6917 108.295 27.6756 108.279C27.6594 108.263 27.6504 108.241 27.6504 108.218C27.6504 108.195 27.6594 108.173 27.6756 108.157C27.6917 108.141 27.7136 108.132 27.7364 108.132L39.9229 106.564C39.9457 106.561 39.9688 106.567 39.987 106.581C40.0053 106.595 40.0173 106.616 40.0203 106.639C40.0234 106.662 40.0172 106.685 40.0033 106.703C39.9893 106.721 39.9686 106.733 39.9458 106.736L27.7622 108.304H27.7364Z" fill="white"/>
<path d="M27.06 107.49C27.0386 107.49 27.018 107.482 27.0021 107.468C26.9862 107.454 26.9762 107.434 26.974 107.413C26.9716 107.39 26.9779 107.367 26.9918 107.349C27.0057 107.331 27.026 107.319 27.0486 107.315L39.2265 105.748C39.2493 105.747 39.2718 105.754 39.2897 105.768C39.3076 105.782 39.3198 105.803 39.3239 105.825C39.3251 105.836 39.324 105.848 39.3208 105.859C39.3175 105.87 39.3121 105.88 39.305 105.888C39.2978 105.897 39.2889 105.905 39.2789 105.91C39.2688 105.915 39.2578 105.919 39.2465 105.92L27.0629 107.49H27.06Z" fill="white"/>
<path d="M26.3807 106.674C26.3579 106.674 26.336 106.665 26.3199 106.649C26.3037 106.633 26.2947 106.611 26.2947 106.588C26.2947 106.565 26.3037 106.543 26.3199 106.527C26.336 106.511 26.3579 106.502 26.3807 106.502L38.5672 104.934C38.5899 104.932 38.6127 104.938 38.6308 104.952C38.649 104.966 38.6611 104.986 38.6646 105.009C38.6662 105.02 38.6656 105.031 38.6627 105.043C38.6598 105.054 38.6547 105.064 38.6478 105.073C38.6409 105.082 38.6322 105.09 38.6223 105.095C38.6124 105.101 38.6014 105.105 38.5901 105.106L26.4036 106.674H26.3807Z" fill="white"/>
<path d="M25.7043 105.86C25.6833 105.86 25.663 105.853 25.6472 105.839C25.6314 105.825 25.6211 105.806 25.6183 105.785C25.6167 105.774 25.6173 105.763 25.6202 105.751C25.6231 105.74 25.6282 105.73 25.6351 105.721C25.6421 105.712 25.6507 105.704 25.6606 105.699C25.6705 105.693 25.6815 105.689 25.6928 105.688L37.8793 104.12C37.902 104.118 37.9248 104.124 37.943 104.138C37.9611 104.152 37.9732 104.172 37.9768 104.195C37.9784 104.206 37.9776 104.218 37.9745 104.229C37.9715 104.24 37.9662 104.251 37.9589 104.26C37.9517 104.269 37.9427 104.277 37.9325 104.282C37.9222 104.288 37.911 104.291 37.8994 104.292L25.7157 105.86H25.7043Z" fill="white"/>
<path d="M25.025 105.042C25.0036 105.042 24.9829 105.035 24.967 105.02C24.9511 105.006 24.9412 104.986 24.939 104.965C24.9372 104.942 24.9438 104.92 24.9576 104.902C24.9713 104.884 24.9913 104.872 25.0135 104.868L37.2 103.3C37.2232 103.297 37.2464 103.304 37.2646 103.319C37.2828 103.333 37.2946 103.354 37.2975 103.377C37.2999 103.4 37.2935 103.422 37.2796 103.44C37.2656 103.457 37.2453 103.469 37.223 103.472L25.0365 105.042H25.025Z" fill="white"/>
<path d="M24.3487 104.229C24.3277 104.229 24.3074 104.221 24.2916 104.208C24.2758 104.194 24.2655 104.175 24.2627 104.154C24.2611 104.143 24.2617 104.131 24.2646 104.12C24.2675 104.109 24.2726 104.099 24.2795 104.09C24.2865 104.081 24.2951 104.073 24.305 104.068C24.3149 104.062 24.3259 104.058 24.3372 104.057L36.5237 102.489C36.5463 102.487 36.5688 102.494 36.5867 102.508C36.6047 102.521 36.617 102.541 36.6212 102.564C36.6228 102.575 36.622 102.587 36.619 102.598C36.6159 102.609 36.6106 102.62 36.6033 102.629C36.5961 102.638 36.5871 102.646 36.5769 102.651C36.5666 102.657 36.5554 102.66 36.5438 102.661L24.3601 104.229H24.3487Z" fill="white"/>
<path d="M23.6694 103.415C23.6466 103.415 23.6247 103.406 23.6086 103.39C23.5924 103.373 23.5834 103.352 23.5834 103.329C23.5834 103.306 23.5924 103.284 23.6086 103.268C23.6247 103.252 23.6466 103.243 23.6694 103.243L35.8559 101.675C35.8672 101.674 35.8786 101.674 35.8896 101.677C35.9007 101.68 35.911 101.685 35.92 101.692C35.9291 101.699 35.9367 101.708 35.9424 101.718C35.9481 101.727 35.9518 101.738 35.9533 101.75C35.9548 101.761 35.9541 101.772 35.9512 101.783C35.9482 101.794 35.9432 101.805 35.9362 101.814C35.9293 101.823 35.9207 101.83 35.9108 101.836C35.901 101.842 35.8901 101.846 35.8788 101.847L23.6923 103.415H23.6694Z" fill="white"/>
<path d="M22.993 102.601C22.9716 102.601 22.951 102.593 22.9351 102.579C22.9192 102.564 22.9092 102.545 22.907 102.523C22.9045 102.501 22.9109 102.478 22.9248 102.46C22.9386 102.442 22.959 102.429 22.9815 102.426L35.1681 100.858C35.191 100.856 35.2138 100.863 35.2319 100.878C35.25 100.892 35.262 100.913 35.2655 100.936C35.2667 100.947 35.2656 100.958 35.2624 100.969C35.2591 100.98 35.2537 100.99 35.2465 100.999C35.2393 101.008 35.2305 101.015 35.2204 101.02C35.2104 101.026 35.1994 101.029 35.1881 101.03L23.0045 102.601H22.993Z" fill="white"/>
<path d="M22.3166 101.784C22.2938 101.784 22.2719 101.775 22.2558 101.759C22.2396 101.743 22.2306 101.721 22.2306 101.698C22.2306 101.675 22.2396 101.654 22.2558 101.637C22.2719 101.621 22.2938 101.612 22.3166 101.612L34.5031 100.044C34.5258 100.042 34.5486 100.048 34.5667 100.062C34.5849 100.076 34.597 100.096 34.6005 100.119C34.6021 100.13 34.6015 100.142 34.5986 100.153C34.5957 100.164 34.5906 100.174 34.5837 100.183C34.5768 100.192 34.5681 100.2 34.5582 100.206C34.5483 100.211 34.5373 100.215 34.526 100.216L22.3166 101.784Z" fill="white"/>
</g>
<path d="M35.2139 45.6777C35.2139 45.6777 37.5067 46.4401 38.0799 47.3974C38.6531 48.3546 40.1263 53.4534 40.1263 53.4534" stroke="#263238" stroke-width="0.0969739" stroke-linecap="round" stroke-linejoin="round"/>
</svg>
