<svg width="16" height="14" viewBox="0 0 16 14" fill="none" xmlns="http://www.w3.org/2000/svg">
<path d="M5.20292 2.72222C5.20292 2.36474 5.27531 2.01075 5.41595 1.68047C5.5566 1.3502 5.76275 1.0501 6.02263 0.79732C6.28251 0.544539 6.59104 0.344021 6.93059 0.207217C7.27014 0.0704123 7.63407 0 8.0016 0C8.36913 0 8.73306 0.0704123 9.07261 0.207217C9.41216 0.344021 9.72068 0.544539 9.98057 0.79732C10.2404 1.0501 10.4466 1.3502 10.5872 1.68047C10.7279 2.01075 10.8003 2.36474 10.8003 2.72222C10.8003 3.4442 10.5054 4.13661 9.98057 4.64712C9.45571 5.15764 8.74385 5.44445 8.0016 5.44445C7.25934 5.44445 6.54749 5.15764 6.02263 4.64712C5.49778 4.13661 5.20292 3.4442 5.20292 2.72222ZM2.00442 6.22222C2.53461 6.22222 3.04308 6.01736 3.41797 5.65271C3.79287 5.28805 4.00348 4.79348 4.00348 4.27778C4.00348 3.76208 3.79287 3.2675 3.41797 2.90285C3.04308 2.53819 2.53461 2.33333 2.00442 2.33333C1.47424 2.33333 0.965773 2.53819 0.590877 2.90285C0.215981 3.2675 0.00536648 3.76208 0.00536648 4.27778C0.00536648 4.79348 0.215981 5.28805 0.590877 5.65271C0.965773 6.01736 1.47424 6.22222 2.00442 6.22222ZM15.9978 4.27778C15.9978 4.79348 15.7872 5.28805 15.4123 5.65271C15.0374 6.01736 14.529 6.22222 13.9988 6.22222C13.4686 6.22222 12.9601 6.01736 12.5852 5.65271C12.2103 5.28805 11.9997 4.79348 11.9997 4.27778C11.9997 3.76208 12.2103 3.2675 12.5852 2.90285C12.9601 2.53819 13.4686 2.33333 13.9988 2.33333C14.529 2.33333 15.0374 2.53819 15.4123 2.90285C15.7872 3.2675 15.9978 3.76208 15.9978 4.27778ZM6.80216 7C5.69868 7 4.80311 7.87111 4.80311 8.94445V10.8889C4.80311 11.714 5.14009 12.5053 5.73992 13.0888C6.33976 13.6722 7.15331 14 8.0016 14C8.84989 14 9.66344 13.6722 10.2633 13.0888C10.8631 12.5053 11.2001 11.714 11.2001 10.8889V8.94445C11.2001 7.87111 10.3045 7 9.20103 7H6.80216ZM3.20386 8.94445C3.20386 8.49489 3.29022 8.06556 3.45014 7.672L1.48147 8.18533C0.96965 8.31878 0.533241 8.64443 0.268149 9.09071C0.00305638 9.53699 -0.0690279 10.0674 0.0677372 10.5653L0.377991 11.6931C0.486735 12.0878 0.674349 12.4578 0.93012 12.7819C1.18589 13.1061 1.50481 13.3781 1.86865 13.5823C2.2325 13.7866 2.63415 13.9191 3.05066 13.9724C3.46718 14.0256 3.89039 13.9985 4.29614 13.8927L4.32333 13.8849C3.6002 13.045 3.20391 11.9844 3.20386 10.8889V8.94445ZM12.7993 10.8889C12.7993 12.0291 12.3787 13.0744 11.6799 13.8864L11.7055 13.8927C12.5247 14.106 13.3975 13.9941 14.1319 13.5817C14.8664 13.1692 15.4024 12.4899 15.622 11.6931L15.9323 10.5653C16.069 10.0674 15.9969 9.53699 15.7319 9.09071C15.4668 8.64443 15.0304 8.31878 14.5185 8.18533L12.5547 7.672C12.713 8.06711 12.7993 8.49645 12.7993 8.94445V10.8889Z" fill="#6976EB"/>
</svg>
