<svg width="173" height="148" viewBox="0 0 173 148" fill="none" xmlns="http://www.w3.org/2000/svg">
<path d="M110.013 21.6726C110.013 21.6726 91.8622 44.6633 62.8211 30.95C33.78 17.2368 4.73938 54.3436 29.7465 76.931C54.7537 99.5184 30.2823 111.93 47.2714 125.773C66.5807 141.506 83.3916 109.602 98.7187 116.862C132.546 132.886 157.607 126.543 151.96 107.989C142.048 75.4197 129.373 73.3009 139.053 56.3604C148.734 39.4199 127.369 4.19627 110.013 21.6726Z" fill="#6976EB" fill-opacity="0.2"/>
<path fill-rule="evenodd" clip-rule="evenodd" d="M105.756 93.298L123.386 50.736L75.8723 31.0552L58.2425 73.6171L105.756 93.298ZM85.9171 73.9993C87.5356 74.7085 89.2869 75.0636 91.0525 75.0405C94.3123 74.9115 96.6864 73.0637 98.2434 70.5948C98.6692 69.9253 99.0339 69.2195 99.3376 68.4773C99.9645 66.964 100.193 65.175 100.17 63.2817C100.135 60.7738 99.6563 58.099 99.0642 55.6985C98.3649 52.8713 97.5069 50.4271 97.0382 49.086C96.7992 48.3998 96.6573 48.003 96.6909 47.9892C96.6909 47.9892 93.3358 49.3697 89.6124 51.6393L89.5595 51.6728C87.3355 52.9901 85.2686 54.5539 83.398 56.3344C82.0526 57.6609 80.957 59.0964 80.3321 60.6049C80.0096 61.3837 79.7584 62.1827 79.5785 63.0021C78.9724 65.8094 79.3728 68.74 81.5497 71.1043C82.7819 72.3691 84.2712 73.3564 85.9171 73.9993ZM44.2218 94.0272C43.1163 92.6011 42.4083 90.91 42.1697 89.1257C41.931 87.3414 42.1703 85.5275 42.8632 83.8683L68.3284 22.3899C69.3675 19.8814 71.3651 17.8904 73.8819 16.8548C76.3988 15.8192 79.2286 15.8239 81.7489 16.8678L129.263 36.5487C131.783 37.5926 133.787 39.5903 134.835 42.1022C135.882 44.6141 135.887 47.4346 134.848 49.9431L109.382 111.421C108.699 113.085 107.586 114.536 106.155 115.629C104.725 116.722 103.028 117.418 101.238 117.644C99.4499 117.876 97.6301 117.634 95.962 116.944L91.2106 114.975L85.334 129.163L47.323 113.418L53.1996 99.2308L48.4482 97.2627C46.7802 96.5717 45.3225 95.4558 44.2218 94.0272ZM79.749 115.768L60.7435 107.896L68.579 88.9796L87.5845 96.8519L79.749 115.768ZM76.1228 97.6449C74.8627 97.1229 73.4478 97.1206 72.1894 97.6384C70.931 98.1561 69.9321 99.1517 69.4126 100.406C68.8931 101.66 68.8954 103.07 69.4191 104.326C69.9428 105.582 70.945 106.581 72.2051 107.103C73.4653 107.625 74.8802 107.627 76.1386 107.11C77.397 106.592 78.3958 105.596 78.9154 104.342C79.4349 103.088 79.4325 101.678 78.9088 100.422C78.3851 99.1657 77.383 98.1668 76.1228 97.6449Z" fill="#6976EB"/>
</svg>
