<svg width="173" height="173" viewBox="0 0 173 173" fill="none" xmlns="http://www.w3.org/2000/svg">
<path d="M62.8927 149.821C72.072 155.353 78.6204 153.057 81.1275 148.62C85.9757 140.04 102.096 122.495 127.642 116.565C161.476 108.71 154.41 87.8562 133.611 76.9129C112.812 65.9696 97.2598 50.8275 99.6136 34.3632C101.967 17.8989 78.646 12.2231 68.2746 43.8949C61.5724 64.3624 49.5616 69.8458 41.9026 71.1638C34.6841 72.4061 26.7879 73.9647 22.9374 80.1955C18.265 87.7556 19.8954 95.4031 39.4577 100.648C67.1793 108.081 42.3179 137.419 62.8927 149.821Z" fill="#6976EB" fill-opacity="0.2"/>
<path d="M39.0431 113.947C39.4315 113.724 43.816 111.868 65.6282 122.037C65.5647 122.123 65.5377 122.164 65.5377 122.164C65.5377 122.164 42.8618 129.801 38.4189 120.393C37.0921 117.592 37.4723 115.664 39.0052 113.968L39.0431 113.947Z" fill="#6976EB"/>
<path d="M112.357 117.794C107.618 121.778 100.186 124.669 93.0156 120.824C94.1488 120.1 95.3192 119.354 96.5129 118.583C103.714 113.956 110.058 117.052 112.357 117.794Z" fill="#6976EB"/>
<path d="M120.844 68.7965C125.685 109.113 114.179 116.43 112.898 117.541C112.528 117.863 112.377 117.84 111.817 117.695L111.807 117.701C109.434 117.072 103.713 113.956 96.5112 118.583C95.3175 119.354 94.1467 120.1 93.0139 120.824C85.6674 125.484 79.7349 128.767 75.4609 126.861C71.8356 125.012 68.5668 123.411 65.6281 122.037C43.816 111.868 39.4314 113.724 39.043 113.946C39.4937 113.701 43.6287 111.409 49.1963 107.378C49.2153 107.367 49.2342 107.357 49.2383 107.342C56.6802 101.948 66.6465 93.4492 73.8103 82.5162C78.687 75.0817 83.458 56.2343 92.6632 52.5363C111.582 45.4788 120.058 60.5959 120.844 68.7965Z" fill="#ADB4F3"/>
<path d="M99.9261 68.0886C100.513 66.5379 100.456 65.0789 99.7982 64.8297C99.1404 64.5806 98.131 65.6357 97.5438 67.1864C96.9565 68.7371 97.0138 70.1961 97.6716 70.4452C98.3295 70.6944 99.3388 69.6393 99.9261 68.0886Z" fill="white"/>
<path d="M111.969 70.0671C112.386 68.4621 112.171 67.0177 111.49 66.8412C110.809 66.6646 109.92 67.8227 109.504 69.4277C109.087 71.0328 109.302 72.4771 109.983 72.6537C110.664 72.8303 111.553 71.6722 111.969 70.0671Z" fill="white"/>
<path d="M104.638 75.9614C104.54 75.9613 104.444 75.9275 104.367 75.8655C104.291 75.8036 104.237 75.7172 104.216 75.6208C104.139 75.2717 103.796 74.2387 103.252 74.0851C102.708 73.9316 101.641 74.5277 101.21 74.8404C101.117 74.9077 101.001 74.9353 100.888 74.9172C100.774 74.899 100.673 74.8367 100.606 74.7438C100.538 74.6508 100.511 74.535 100.529 74.4217C100.547 74.3084 100.609 74.207 100.702 74.1397C100.872 74.0166 102.396 72.9447 103.487 73.2526C104.625 73.5737 105.02 75.247 105.061 75.4368C105.075 75.5 105.075 75.5654 105.06 75.6284C105.045 75.6913 105.016 75.7501 104.975 75.8004C104.935 75.8507 104.884 75.8913 104.825 75.9192C104.767 75.9471 104.703 75.9615 104.638 75.9614H104.638Z" fill="white"/>
</svg>
