<svg width="173" height="148" viewBox="0 0 173 148" fill="none" xmlns="http://www.w3.org/2000/svg">
<path d="M110.013 22.1101C110.013 22.1101 91.8622 45.1008 62.8211 31.3875C33.78 17.6743 4.73938 54.7811 29.7465 77.3685C54.7537 99.9559 30.2823 112.368 47.2714 126.21C66.5807 141.944 83.3916 110.039 98.7187 117.3C132.546 133.323 157.607 126.98 151.96 108.426C142.048 75.8572 129.373 73.7384 139.053 56.7979C148.734 39.8574 127.369 4.63377 110.013 22.1101Z" fill="#6976EB" fill-opacity="0.2"/>
<path d="M110.5 59L110.5 55.0006C117.626 56.4162 113.307 64.5842 116.997 71.3542L113.313 72.4994C111.817 69.8327 114.499 66.6562 111.994 64.9038C109.488 63.1514 113.518 59.4902 110.5 59ZM77.2882 88.9819L72.9643 91.0992C69.9009 84.0222 70.3314 76.2528 73.561 69.7663L78.1449 71.3546C76.6949 74.0423 75.8653 77.0207 75.7171 80.0711C75.5688 83.1214 76.1057 86.1662 77.2882 88.9819ZM82.0765 87.9773C78.8264 81.3401 79.6513 74.0478 85.1146 69.5499L84.3947 68.0798C83.516 66.2854 84.2552 64.1276 86.0496 63.2489C87.844 62.3702 90.0018 63.1094 90.8805 64.9038L91.6004 66.3739C98.525 64.8057 104.759 68.6147 108.02 75.2734L113.313 86.0831L119.754 88.2897L120.813 90.4516L86.2219 107.39L85.1632 105.228L87.3698 98.787L82.0765 87.9773ZM106.693 105.407C106.391 105.555 106.099 105.671 105.786 105.744C104.233 106.129 102.621 105.739 101.424 104.717C100.954 104.304 100.57 103.795 100.274 103.189L108.922 98.9549C110.064 101.344 109.093 104.232 106.693 105.407Z" fill="#ADB4F3"/>
<path d="M73.9734 43.6594L70.4612 37.5762C60.7641 41.5583 52.9281 49.599 49.5817 60.2092L56.2917 62.0072C57.6694 57.8161 59.9748 53.9897 63.0362 50.813C66.0975 47.6363 69.836 45.1911 73.9734 43.6594ZM109.771 76.3368L116.481 78.1347C118.854 67.2638 116.088 56.3823 109.715 48.0941L103.665 51.6153C106.464 55.0185 108.465 59.0056 109.522 63.2835C110.578 67.5614 110.663 72.0217 109.771 76.3368ZM102.712 76.2433C105.472 65.9434 102.28 55.8467 93.2956 50.9943L93.9069 48.7129C94.6531 45.9282 93.0075 43.078 90.2229 42.3319C87.4382 41.5857 84.5881 43.2313 83.8419 46.016L83.2306 48.2974C72.9904 47.9987 65.2204 55.1222 62.4516 65.4556L57.9567 82.2307L49.4487 87.1428L48.5498 90.4978L102.23 104.881L103.129 101.526L98.2168 93.0184L102.712 76.2433ZM72.6929 107.755C73.1626 107.88 73.6078 107.964 74.0709 107.98C76.3775 108.095 78.5512 107.095 79.9629 105.316C80.5141 104.6 80.9156 103.773 81.1673 102.834L67.7473 99.2376C66.792 102.937 68.9689 106.757 72.6929 107.755Z" fill="#6976EB"/>
</svg>
