<svg width="173" height="148" viewBox="0 0 173 148" fill="none" xmlns="http://www.w3.org/2000/svg">
<path d="M108.954 21.8445C108.954 21.8445 90.8036 44.8352 61.7625 31.1219C32.7214 17.4086 3.68078 54.5155 28.6879 77.1029C53.6951 99.6903 29.2237 112.102 46.2128 125.945C65.5221 141.678 82.333 109.774 97.6601 117.034C131.488 133.058 156.549 126.714 150.902 108.161C140.989 75.5916 128.314 73.4727 137.995 56.5322C147.675 39.5917 126.311 4.36814 108.954 21.8445Z" fill="#6976EB" fill-opacity="0.2"/>
<path fill-rule="evenodd" clip-rule="evenodd" d="M145.933 65.5908C143.655 73.1084 138.607 79.0389 132.249 82.5893C131.947 82.7784 131.633 82.9465 131.308 83.0925C124.503 86.6163 116.583 87.3184 109.264 85.0467C101.945 82.7751 95.8148 77.7125 92.2004 70.9548C88.5861 64.1971 87.7783 56.2878 89.952 48.939C92.1257 41.5901 97.106 35.3929 103.815 31.6886C104.117 31.4969 104.432 31.3263 104.758 31.178C109.851 28.5711 115.598 27.5206 121.284 28.1574C126.97 28.7942 132.343 31.0902 136.733 34.7592C141.123 38.4283 144.336 43.3081 145.972 48.7907C147.608 54.2732 147.595 60.1159 145.933 65.5908ZM123.108 40.4042C125.936 41.2592 128.501 42.817 130.564 44.932C132.627 47.0471 134.121 49.6505 134.905 52.4991C135.689 55.3477 135.739 58.3486 135.049 61.2216C134.359 64.0945 132.952 66.7458 130.96 68.9279L115.394 39.8462C117.974 39.4519 120.611 39.6426 123.108 40.4042ZM105.111 45.3523L120.663 74.4294C117.087 74.9769 113.429 74.4018 110.194 72.7833C106.959 71.1648 104.306 68.5827 102.599 65.3929C100.893 62.2031 100.219 58.5626 100.669 54.9733C101.118 51.384 102.67 48.0225 105.111 45.3523ZM106.76 94.3445C107.554 94.5851 108.356 94.8009 109.165 94.9919L107.274 101.229C106.747 102.971 106.968 104.923 107.977 106.66C109.147 108.672 110.249 109.648 112.095 110.207C113.082 110.507 113.91 111.186 114.396 112.095C114.883 113.004 114.988 114.07 114.689 115.057C114.39 116.044 113.711 116.872 112.801 117.358C111.892 117.844 110.826 117.95 109.839 117.651L27.9651 92.8376C26.9781 92.5384 26.1503 91.8595 25.6639 90.95C25.1775 90.0406 25.0723 88.9751 25.3714 87.9881C25.6705 87.0011 26.3495 86.1733 27.2589 85.6869C28.1684 85.2005 29.2338 85.0953 30.2208 85.3944C32.0667 85.9539 33.5251 85.7538 35.6228 84.7317C36.4733 84.3276 37.2313 83.7523 37.8493 83.0419C38.4673 82.3315 38.9321 81.5011 39.2146 80.6029L47.7299 52.5051C50.3285 43.9306 56.4524 36.8634 64.67 32.8362C72.4986 29.043 81.4233 28.166 89.8405 30.3629C85.2713 35.1713 82.0086 41.069 80.3629 47.4947C78.7171 53.9205 78.7431 60.6604 80.4383 67.0733C82.1335 73.4861 85.4415 79.3585 90.0475 84.1316C94.6536 88.9047 100.412 92.422 106.76 94.3445ZM51.9292 114.322C52.3779 112.841 53.3964 111.6 54.7605 110.87C56.1247 110.141 57.7228 109.983 59.2034 110.431L74.0896 114.943C75.5701 115.392 76.8118 116.41 77.5414 117.774C78.271 119.138 78.4288 120.736 77.9801 122.217C77.5314 123.698 76.513 124.939 75.1488 125.669C73.7847 126.398 72.1865 126.556 70.706 126.108L55.8198 121.596C54.3392 121.147 53.0976 120.129 52.368 118.765C51.6384 117.401 51.4805 115.802 51.9292 114.322Z" fill="#6976EB"/>
</svg>
