<svg width="173" height="148" viewBox="0 0 173 148" fill="none" xmlns="http://www.w3.org/2000/svg">
<path d="M109.211 23.8764C109.211 23.8764 91.6778 46.0847 63.6256 32.8378C35.5733 19.5909 7.521 55.4355 31.6772 77.2538C55.8333 99.0722 32.1947 111.061 48.6054 124.433C67.2573 139.631 83.4959 108.813 98.3012 115.826C130.977 131.304 155.185 125.176 149.73 107.254C140.156 75.794 127.912 73.7476 137.263 57.3835C146.613 41.0194 125.976 6.99526 109.211 23.8764Z" fill="#6976EB" fill-opacity="0.2"/>
<path d="M86.2144 71.3473V117.94L50.0391 102.315L50.2116 55.8906L86.2144 71.3473Z" fill="#6976EB"/>
<path d="M86.2188 71.3749V117.968L122.218 102.882V56.0391L86.2188 71.3749Z" fill="#D7DAF3"/>
<path d="M86.2144 71.3468L122.39 56.1948L86.4986 40.2852L50.0391 55.816L86.2144 71.3468Z" fill="#6976EB"/>
<path d="M40.1625 64.1261L76.5683 81.7971C76.6661 81.8446 76.7768 81.8587 76.8834 81.8371C76.99 81.8155 77.0866 81.7596 77.1583 81.6778L86.2167 71.3452L50.0414 55.8145L40.0814 63.2824C40.0133 63.3334 39.9595 63.4011 39.9251 63.479C39.8907 63.5569 39.8769 63.6423 39.8851 63.727C39.8932 63.8117 39.923 63.8929 39.9716 63.9628C40.0202 64.0327 40.0859 64.089 40.1625 64.1261Z" fill="#ADB4F3"/>
<path d="M122.39 56.1934L132.437 65.2767C132.499 65.3321 132.545 65.4019 132.573 65.4799C132.6 65.5578 132.608 65.6414 132.595 65.723C132.582 65.8046 132.549 65.8817 132.498 65.9472C132.448 66.0128 132.382 66.0648 132.307 66.0984L96.3498 82.146C96.2537 82.1888 96.1466 82.2001 96.0438 82.1782C95.941 82.1562 95.8478 82.1022 95.7776 82.0239L86.2148 71.3454L122.39 56.1934Z" fill="#ADB4F3"/>
<path d="M86.5 40.2859L122.492 56.1955L127.668 54.9958C127.77 54.9722 127.862 54.9171 127.93 54.8383C127.999 54.7596 128.041 54.6612 128.05 54.5571C128.06 54.4531 128.036 54.3487 127.983 54.2588C127.93 54.169 127.849 54.0983 127.753 54.0567L94.8884 39.8163C94.8165 39.7851 94.7383 39.7714 94.6602 39.7764L86.5 40.2859Z" fill="#ADB4F3"/>
<path d="M86.5012 40.286L50.711 55.891L46.1866 55.1307C46.0819 55.1112 45.9862 55.0584 45.9137 54.9803C45.8413 54.9022 45.7959 54.8028 45.7842 54.6969C45.7726 54.591 45.7953 54.4841 45.8491 54.3921C45.9029 54.3001 45.9849 54.2279 46.0829 54.1861L79.7602 39.6724C79.8346 39.6408 79.9157 39.6278 79.9963 39.6346L86.5012 40.286Z" fill="#ADB4F3"/>
<path d="M123.803 110.701C128.738 110.701 132.738 106.701 132.738 101.766C132.738 96.8307 128.738 92.8301 123.803 92.8301C118.868 92.8301 114.867 96.8307 114.867 101.766C114.867 106.701 118.868 110.701 123.803 110.701Z" fill="#6976EB" stroke="white" stroke-width="8.22827" stroke-miterlimit="10"/>
<path d="M126.644 99.1169C126.497 98.6038 126.29 98.1868 126.024 97.8694C125.767 97.5592 125.434 97.3213 125.057 97.1792C124.244 96.8986 123.36 96.8986 122.547 97.1792C122.171 97.3205 121.839 97.5585 121.584 97.8694C121.314 98.1868 121.108 98.6038 120.964 99.1169C120.82 99.63 120.746 100.257 120.746 100.996V102.501C120.746 103.24 120.82 103.867 120.968 104.384C121.083 104.843 121.296 105.272 121.591 105.642C121.848 105.956 122.181 106.197 122.558 106.344C123.367 106.634 124.252 106.634 125.061 106.344C125.436 106.197 125.767 105.956 126.021 105.642C126.311 105.27 126.521 104.842 126.637 104.384C126.781 103.867 126.855 103.24 126.855 102.501H126.863V100.996C126.862 100.257 126.788 99.6299 126.644 99.1169ZM125.297 102.726C125.302 103.128 125.27 103.53 125.201 103.926C125.155 104.208 125.058 104.479 124.917 104.727C124.808 104.918 124.647 105.075 124.452 105.177C124.252 105.274 124.032 105.322 123.81 105.317C123.588 105.321 123.368 105.273 123.167 105.177C122.97 105.074 122.805 104.918 122.691 104.727C122.547 104.479 122.447 104.208 122.396 103.926C122.321 103.531 122.286 103.129 122.293 102.726V100.755C122.286 100.355 122.32 99.9539 122.393 99.5596C122.441 99.2831 122.54 99.0179 122.684 98.7771C122.799 98.5931 122.962 98.4448 123.157 98.349C123.358 98.2613 123.576 98.2161 123.795 98.2161C124.015 98.2161 124.232 98.2613 124.434 98.349C124.63 98.4424 124.794 98.5913 124.906 98.7771C125.051 99.0179 125.149 99.2831 125.198 99.5596C125.271 99.9539 125.305 100.355 125.298 100.755V102.726H125.297Z" fill="white"/>
</svg>
