<svg width="80" height="76" viewBox="0 0 80 76" fill="none" xmlns="http://www.w3.org/2000/svg">
<path d="M0.307746 53.2695C1.83843 60.5281 6.09207 62.7596 9.52155 61.9351C16.1537 60.3405 32.6447 60.2218 47.7033 70.357C67.6476 83.7805 74.8714 70.3611 70.5959 54.6659C66.3204 38.9708 66.6475 23.9504 76.0944 17.3722C85.5413 10.7939 77.4083 -3.69278 56.4782 6.0036C42.9525 12.2698 34.5078 8.77647 30.2258 5.52092C26.1901 2.45218 21.6745 -0.809898 16.7025 0.180872C10.6695 1.38339 7.56727 5.81785 14.1439 18.1977C23.4637 35.7413 -3.12322 36.9994 0.307746 53.2695Z" fill="#6976EB" fill-opacity="0.2"/>
<path d="M40.0259 51.5806L40.5882 52.2473L40.4191 57.4545L17.5885 62.0286C17.4201 62.0625 17.2466 62.0629 17.078 62.0298C16.9094 61.9966 16.749 61.9306 16.606 61.8354C16.4629 61.7403 16.34 61.6179 16.2443 61.4752C16.1486 61.3325 16.0819 61.1724 16.0481 61.0039L9.36971 27.6705C9.3356 27.5022 9.3351 27.3288 9.36822 27.1603C9.40135 26.9918 9.46745 26.8315 9.56272 26.6887C9.658 26.5458 9.78057 26.4232 9.92339 26.3278C10.0662 26.2325 10.2265 26.1664 10.395 26.1332L34.7129 21.2578L33.6485 24.9662C33.6485 24.9662 35.5947 28.6363 35.9713 29.2319L34.1818 36.9713L39.4672 42.205L37.7911 48.9176L40.0259 51.5806Z" fill="#6976EB"/>
<path d="M36.5349 43.1682L17.6548 46.9518C17.5974 46.9633 17.5601 47.0192 17.5716 47.0767L18.129 49.8581C18.1405 49.9156 18.1964 49.9528 18.2539 49.9413L37.134 46.1577C37.1915 46.1462 37.2287 46.0903 37.2172 46.0328L36.6598 43.2514C36.6483 43.1939 36.5924 43.1567 36.5349 43.1682Z" fill="#D7DAF3"/>
<path d="M37.7929 48.9219L40.0275 51.5849L19.9485 55.6073C19.7785 55.641 19.602 55.606 19.4577 55.51C19.3134 55.414 19.2129 55.2647 19.1782 55.0949L18.8375 53.3886C18.8202 53.3043 18.8198 53.2175 18.8363 53.1331C18.8527 53.0487 18.8857 52.9684 18.9333 52.8968C18.981 52.8252 19.0423 52.7638 19.1138 52.716C19.1852 52.6682 19.2655 52.635 19.3498 52.6183L37.7929 48.9219Z" fill="#D7DAF3"/>
<path d="M78.6053 21.7487L69.8196 54.5862C69.7292 54.9209 69.5101 55.2062 69.21 55.3798C68.9099 55.5535 68.5534 55.6013 68.2182 55.5128L42.2812 48.573L45.0637 44.2892L44.7504 43.1927L43.7726 39.7753L43.7734 39.7721L48.3721 34.6708L45.8182 27.1796L50.8715 21.2933L50.6435 15.9241L53.4577 13.6641L77.6826 20.1449C78.0174 20.2356 78.3025 20.4554 78.4755 20.7561C78.6484 21.0567 78.6951 21.4137 78.6053 21.7487V21.7487Z" fill="#6976EB"/>
<path d="M72.8905 22.249L68.1707 20.986C67.0387 20.683 65.8755 21.3551 65.5726 22.4871L64.3096 27.2069C64.0067 28.3388 64.6788 29.502 65.8108 29.8049L70.5306 31.0679C71.6626 31.3708 72.8257 30.6987 73.1286 29.5668L74.3916 24.847C74.6945 23.715 74.0225 22.5519 72.8905 22.249Z" fill="#D7DAF3"/>
<path d="M49.1061 41.8758L48.6584 43.5572C48.6132 43.7246 48.5036 43.8673 48.3535 43.9541C48.2034 44.041 48.0251 44.0648 47.8574 44.0206L44.7513 43.1909L43.7734 39.7734L48.6457 41.0759C48.7287 41.0978 48.8066 41.1359 48.8747 41.1881C48.9429 41.2403 49 41.3054 49.0428 41.3798C49.0856 41.4542 49.1133 41.5363 49.1241 41.6215C49.135 41.7066 49.1289 41.7931 49.1061 41.8758Z" fill="#D7DAF3"/>
<path d="M38.9984 19.2248C38.8747 19.09 38.8082 18.9124 38.8127 18.7295C38.8173 18.5466 38.8926 18.3726 39.0229 18.2441L43.833 13.3078C44.1204 13.0129 44.5874 13.0059 44.8602 13.2925L45.2406 13.6918C45.5134 13.9782 45.4824 14.443 45.1723 14.714L39.9818 19.2509C39.8461 19.3741 39.6681 19.4401 39.4849 19.4352C39.3017 19.4304 39.1274 19.355 38.9984 19.2248V19.2248Z" fill="#418DF9"/>
<path d="M36.1555 17.5324C36.102 17.5078 36.0538 17.4728 36.0138 17.4295C35.9738 17.3862 35.9427 17.3354 35.9223 17.2801C35.9019 17.2248 35.8926 17.166 35.8949 17.1071C35.8972 17.0482 35.9111 16.9903 35.9358 16.9368L37.738 12.8271C37.7886 12.7096 37.8837 12.617 38.0025 12.5696C38.1213 12.5221 38.254 12.5238 38.3716 12.5742L38.7032 12.7242C38.7597 12.7504 38.8101 12.788 38.8514 12.8346C38.8926 12.8813 38.9237 12.936 38.9427 12.9953C38.9617 13.0546 38.9683 13.1171 38.9619 13.1791C38.9555 13.241 38.9364 13.301 38.9057 13.3551L36.7719 17.315C36.7153 17.4221 36.6204 17.5039 36.5062 17.5442C36.392 17.5845 36.2668 17.5803 36.1555 17.5324V17.5324Z" fill="#418DF9"/>
<path d="M33.1648 18.1951C32.7867 18.2616 32.4238 17.94 32.3421 17.4661L30.8916 9.05218C30.8049 8.54955 31.067 8.07191 31.468 8.00142L32.027 7.90324C32.428 7.8328 32.8067 8.19789 32.8597 8.70634L33.7513 17.2185C33.8017 17.6979 33.5428 18.1287 33.1648 18.1951Z" fill="#418DF9"/>
</svg>
