<svg width="6" height="8" viewBox="0 0 6 8" fill="none" xmlns="http://www.w3.org/2000/svg">
<path d="M2.65741 1.70703C2.65741 1.70703 1.89844 2.46601 1.89844 3.03524C1.89844 3.41472 2.08818 3.79421 2.65741 3.79421C3.22664 3.79421 3.41639 3.41472 3.41639 3.03524C3.41639 2.56277 2.88586 1.96774 2.71206 1.7723C2.67639 1.73208 2.65551 1.70893 2.65741 1.70703ZM2.65741 5.69165C2.55677 5.69165 2.46024 5.73163 2.38907 5.8028C2.31791 5.87396 2.27792 5.97049 2.27792 6.07113C2.27792 6.17178 2.31791 6.2683 2.38907 6.33947C2.46024 6.41064 2.55677 6.45062 2.65741 6.45062C2.75806 6.45062 2.85458 6.41064 2.92575 6.33947C2.99692 6.2683 3.0369 6.17178 3.0369 6.07113C3.0369 5.97049 2.99692 5.87396 2.92575 5.8028C2.85458 5.73163 2.75806 5.69165 2.65741 5.69165Z" fill="white"/>
<path fill-rule="evenodd" clip-rule="evenodd" d="M0.758974 0C0.557682 0 0.364634 0.0799631 0.222298 0.222298C0.0799631 0.364634 0 0.557682 0 0.758974V5.69231C0 5.8936 0.0799631 6.08665 0.222298 6.22898C0.364634 6.37132 0.557682 6.45128 0.758974 6.45128H1.13846V7.58974H4.17436V6.45128H4.55385C4.75514 6.45128 4.94819 6.37132 5.09052 6.22898C5.23286 6.08665 5.31282 5.8936 5.31282 5.69231V0.758974C5.31282 0.557682 5.23286 0.364634 5.09052 0.222298C4.94819 0.0799631 4.75514 0 4.55385 0H0.758974ZM4.55385 4.55385V1.13846H0.758974V4.55385H4.55385ZM1.89744 6.83077H3.41538V5.31282H1.89744V6.83077Z" fill="white"/>
</svg>
