<svg width="173" height="173" viewBox="0 0 173 173" fill="none" xmlns="http://www.w3.org/2000/svg">
<path d="M107.177 35.8504C107.177 35.8504 89.0262 58.841 59.9852 45.1278C30.9441 31.4145 1.90344 68.5213 26.9106 91.1087C51.9177 113.696 27.4464 126.108 44.4355 139.951C63.7447 155.684 80.5556 123.78 95.8827 131.04C129.71 147.064 154.771 140.72 149.124 122.166C139.212 89.5974 126.537 87.4786 136.217 70.5381C145.898 53.5976 124.533 18.374 107.177 35.8504Z" fill="#6976EB" fill-opacity="0.2"/>
<path d="M76.1641 107.986C76.1641 123.598 88.818 136.252 104.43 136.252C108.065 136.258 111.667 135.558 115.035 134.191C115.105 134.199 115.174 134.203 115.244 134.203H127.615C128.013 134.204 128.408 134.125 128.776 133.973C129.144 133.821 129.478 133.598 129.759 133.316C130.041 133.035 130.264 132.7 130.416 132.332C130.569 131.964 130.647 131.57 130.647 131.172V118.563C132.005 115.203 132.701 111.611 132.695 107.986C132.695 92.3746 120.041 79.7207 104.43 79.7207C88.818 79.7207 76.1641 92.3746 76.1641 107.986Z" fill="#ADB4F3"/>
<path d="M115.745 87.9501C115.745 107.536 99.87 123.41 80.2847 123.41C75.7241 123.418 71.2053 122.54 66.9793 120.825C66.8923 120.836 66.8048 120.841 66.7172 120.841H51.1968C50.6973 120.841 50.2027 120.743 49.7411 120.552C49.2796 120.361 48.8603 120.081 48.5071 119.728C48.1539 119.374 47.8738 118.955 47.6828 118.493C47.4917 118.032 47.3936 117.537 47.3938 117.038V101.219C45.6896 97.0036 44.817 92.4978 44.8243 87.9504C44.8243 68.3651 60.6991 52.4902 80.2845 52.4902C99.8699 52.4902 115.745 68.3648 115.745 87.9501Z" fill="#6976EB"/>
<path d="M63.8379 85.1758C66.5054 85.1758 68.6687 87.3384 68.6689 90.0059C68.6689 92.6735 66.5055 94.8369 63.8379 94.8369C61.1705 94.8367 59.0078 92.6733 59.0078 90.0059C59.0081 87.3386 61.1706 85.176 63.8379 85.1758Z" fill="#D7DAF3" stroke="#D7DAF3" stroke-width="0.617857"/>
<path d="M78.7402 85.1758C81.4077 85.1758 83.571 87.3384 83.5713 90.0059C83.5713 92.6735 81.4079 94.8369 78.7402 94.8369C76.0728 94.8367 73.9102 92.6733 73.9102 90.0059C73.9104 87.3386 76.0729 85.176 78.7402 85.1758Z" fill="#D7DAF3" stroke="#D7DAF3" stroke-width="0.617857"/>
<path d="M94.1582 85.1758C96.8257 85.1758 98.989 87.3384 98.9893 90.0059C98.9893 92.6735 96.8259 94.8369 94.1582 94.8369C91.4908 94.8367 89.3281 92.6733 89.3281 90.0059C89.3284 87.3386 91.4909 85.176 94.1582 85.1758Z" fill="#D7DAF3" stroke="#D7DAF3" stroke-width="0.617857"/>
<path d="M110.09 70.9912C115.199 70.9912 119.341 66.8496 119.341 61.7407C119.341 56.6318 115.199 52.4902 110.09 52.4902C104.981 52.4902 100.84 56.6318 100.84 61.7407C100.84 66.8496 104.981 70.9912 110.09 70.9912Z" fill="#6976EB" stroke="#D7DAF3" stroke-width="6" stroke-miterlimit="10"/>
<path d="M110.083 57.7578C109.813 57.7579 109.546 57.8133 109.299 57.9209L109.292 57.9238L109.286 57.9277C109.033 58.0524 108.82 58.245 108.671 58.4844L108.668 58.4893C108.5 58.77 108.384 59.0791 108.327 59.4014C108.248 59.8279 108.213 60.2616 108.22 60.6953H108.219V62.7363H108.22C108.213 63.171 108.25 63.6052 108.331 64.0322V64.0332C108.39 64.3606 108.506 64.6754 108.674 64.9629L108.676 64.9648C108.823 65.2119 109.036 65.4136 109.291 65.5469L109.301 65.5518C109.548 65.6697 109.819 65.7291 110.093 65.7266V65.7275C110.094 65.7276 110.096 65.7265 110.098 65.7266C110.099 65.7265 110.101 65.7266 110.103 65.7266C110.377 65.7303 110.65 65.6711 110.897 65.5518L110.907 65.5469C111.161 65.4131 111.372 65.2093 111.514 64.96C111.678 64.672 111.788 64.3571 111.843 64.0303L111.844 64.0312C111.9 63.7097 111.933 63.3845 111.944 63.0586L111.947 62.7324V60.6953C111.954 60.2624 111.917 59.8301 111.839 59.4043H111.84C111.783 59.081 111.667 58.771 111.498 58.4893V58.4883L111.439 58.3984C111.296 58.1961 111.103 58.0332 110.878 57.9258L110.867 57.9209C110.62 57.8134 110.353 57.7578 110.083 57.7578ZM107.236 60.9385C107.224 60.3108 107.297 59.6835 107.452 59.0752V59.0742C107.56 58.646 107.759 58.2459 108.035 57.9014L108.034 57.9004C108.262 57.6233 108.559 57.4113 108.895 57.2842C109.669 57.0174 110.511 57.0176 111.286 57.2842C111.622 57.412 111.919 57.6249 112.149 57.9014C112.423 58.2481 112.622 58.6475 112.733 59.0752V59.0762C112.869 59.6084 112.942 60.1544 112.95 60.7031V62.1943H112.937L112.942 62.5088C112.954 63.1379 112.882 63.7662 112.727 64.376H112.726C112.616 64.8083 112.418 65.213 112.144 65.5645C111.915 65.8446 111.619 66.0608 111.282 66.1924C110.516 66.4654 109.68 66.4656 108.914 66.1924H108.915C108.575 66.0603 108.273 65.843 108.042 65.5605C107.765 65.2121 107.565 64.8079 107.456 64.376L107.455 64.374C107.297 63.7655 107.224 63.1375 107.236 62.5088V60.9385Z" fill="#D7DAF3" stroke="#D7DAF3" stroke-width="0.617857"/>
</svg>
