<svg width="173" height="173" viewBox="0 0 173 173" fill="none" xmlns="http://www.w3.org/2000/svg">
<path d="M110.013 34.6101C110.013 34.6101 91.8622 57.6008 62.8211 43.8875C33.78 30.1743 4.73938 67.2811 29.7465 89.8685C54.7537 112.456 30.2823 124.868 47.2714 138.71C66.5807 154.444 83.3916 122.539 98.7187 129.8C132.546 145.823 157.607 139.48 151.96 120.926C142.048 88.3572 129.373 86.2384 139.053 69.2979C148.734 52.3574 127.369 17.1338 110.013 34.6101Z" fill="#6976EB" fill-opacity="0.2"/>
<g filter="url(#filter0_d_3347_7792)">
<rect x="27.2461" y="83.041" width="80" height="27.6543" rx="3.95062" fill="#D7DAF3" shape-rendering="crispEdges"/>
<rect x="31.1953" y="86.9922" width="19.7531" height="19.7531" rx="9.87654" fill="white"/>
<line x1="59.8386" y1="94.8938" x2="101.32" y2="94.8938" stroke="white" stroke-width="3.95062" stroke-linecap="round"/>
</g>
<g filter="url(#filter1_d_3347_7792)">
<rect x="67.2461" y="61.8691" width="80" height="27.6543" rx="3.95062" fill="#6976EB" shape-rendering="crispEdges"/>
<line x1="73.1706" y1="73.722" x2="114.652" y2="73.722" stroke="white" stroke-width="3.95062" stroke-linecap="round"/>
<rect x="123.539" y="65.8203" width="19.7531" height="19.7531" rx="9.87654" fill="white"/>
</g>
<defs>
<filter id="filter0_d_3347_7792" x="25.2708" y="83.041" width="83.9506" height="31.6049" filterUnits="userSpaceOnUse" color-interpolation-filters="sRGB">
<feFlood flood-opacity="0" result="BackgroundImageFix"/>
<feColorMatrix in="SourceAlpha" type="matrix" values="0 0 0 0 0 0 0 0 0 0 0 0 0 0 0 0 0 0 127 0" result="hardAlpha"/>
<feOffset dy="1.97531"/>
<feGaussianBlur stdDeviation="0.987654"/>
<feComposite in2="hardAlpha" operator="out"/>
<feColorMatrix type="matrix" values="0 0 0 0 0 0 0 0 0 0 0 0 0 0 0 0 0 0 0.25 0"/>
<feBlend mode="normal" in2="BackgroundImageFix" result="effect1_dropShadow_3347_7792"/>
<feBlend mode="normal" in="SourceGraphic" in2="effect1_dropShadow_3347_7792" result="shape"/>
</filter>
<filter id="filter1_d_3347_7792" x="65.2708" y="61.8691" width="83.9506" height="31.6049" filterUnits="userSpaceOnUse" color-interpolation-filters="sRGB">
<feFlood flood-opacity="0" result="BackgroundImageFix"/>
<feColorMatrix in="SourceAlpha" type="matrix" values="0 0 0 0 0 0 0 0 0 0 0 0 0 0 0 0 0 0 127 0" result="hardAlpha"/>
<feOffset dy="1.97531"/>
<feGaussianBlur stdDeviation="0.987654"/>
<feComposite in2="hardAlpha" operator="out"/>
<feColorMatrix type="matrix" values="0 0 0 0 0 0 0 0 0 0 0 0 0 0 0 0 0 0 0.25 0"/>
<feBlend mode="normal" in2="BackgroundImageFix" result="effect1_dropShadow_3347_7792"/>
<feBlend mode="normal" in="SourceGraphic" in2="effect1_dropShadow_3347_7792" result="shape"/>
</filter>
</defs>
</svg>
