<svg width="173" height="148" viewBox="0 0 173 148" fill="none" xmlns="http://www.w3.org/2000/svg">
<path d="M126.316 113.99L99.6497 87.3236M46.3164 65.1013C46.3164 69.1869 47.1211 73.2325 48.6846 77.0071C50.2481 80.7816 52.5397 84.2113 55.4286 87.1002C58.3176 89.9892 61.7472 92.2808 65.5218 93.8443C69.2964 95.4077 73.3419 96.2125 77.4275 96.2125C81.5131 96.2125 85.5587 95.4077 89.3332 93.8443C93.1078 92.2808 96.5375 89.9892 99.4264 87.1002C102.315 84.2113 104.607 80.7816 106.17 77.0071C107.734 73.2325 108.539 69.1869 108.539 65.1013C108.539 61.0158 107.734 56.9702 106.17 53.1956C104.607 49.4211 102.315 45.9914 99.4264 43.1025C96.5375 40.2135 93.1078 37.9219 89.3332 36.3584C85.5587 34.7949 81.5131 33.9902 77.4275 33.9902C73.3419 33.9902 69.2964 34.7949 65.5218 36.3584C61.7472 37.9219 58.3176 40.2135 55.4286 43.1025C52.5397 45.9914 50.2481 49.4211 48.6846 53.1956C47.1211 56.9702 46.3164 61.0158 46.3164 65.1013Z" stroke="#6976EB" stroke-width="12.125" stroke-linecap="round" stroke-linejoin="round"/>
<path d="M63.463 136.762C72.6423 142.295 79.1908 139.998 81.6978 135.561C86.546 126.981 102.666 109.436 128.212 103.506C162.046 95.6517 154.98 74.7976 134.181 63.8543C113.382 52.911 97.8301 37.7689 100.184 21.3046C102.538 4.84028 79.2163 -0.835498 68.8449 30.8363C62.1427 51.3039 50.1319 56.7872 42.4729 58.1053C35.2544 59.3475 27.3582 60.9061 23.5077 67.1369C18.8353 74.697 20.4657 82.3445 40.028 87.5897C67.7496 95.0225 42.8882 124.36 63.463 136.762Z" fill="#6976EB" fill-opacity="0.2"/>
</svg>
